<svg id="Layer_1" data-name="Layer 1" xmlns="http://www.w3.org/2000/svg" viewBox="0 0 122 122"><defs><style>.cls-1,.cls-2{fill:#fff;}.cls-2{font-size:15.77px;font-family:ArialRoundedMTBold, Arial Rounded MT Bold;}</style></defs><title>ComicSwap status icons raw</title><path class="cls-1" d="M35.72,56.42a.79.79,0,0,1-1.32.85,20.33,20.33,0,0,1-1.87-3.73,13.48,13.48,0,0,0-2.79,10.24,15.69,15.69,0,0,0,2.13,6.34,12,12,0,0,0,4.69,4.45c3.1,1.59,7.21,1.78,12.19-.44a.87.87,0,0,1,.32-.06.78.78,0,0,1,.78.78A9.5,9.5,0,0,0,54,82.53a14.54,14.54,0,0,0,4.23,2.15,16.61,16.61,0,0,0,4.93.78,13.91,13.91,0,0,0,11.09-5.08,18.52,18.52,0,0,1-4.88-3.12.78.78,0,1,1,1-1.17A15,15,0,0,0,82.2,80a13.51,13.51,0,0,0,6.35-2.5,12.34,12.34,0,0,0,4.14-5.24C94,69.07,94,65.07,92,60.74a.75.75,0,0,1,.08-.81c2.83-3.75,4.2-7.28,4.45-10.43a11.64,11.64,0,0,0-2-7.65A13.72,13.72,0,0,0,88.26,37a19.89,19.89,0,0,0-10.7-1A17,17,0,0,1,78.31,43a.8.8,0,0,1-.86.71.79.79,0,0,1-.7-.86,14.13,14.13,0,0,0-3.16-10.81,15.24,15.24,0,0,0-6.73-4.47,16.89,16.89,0,0,0-8.13-.64,13.71,13.71,0,0,0-9.27,5.95l-.24.37-.44,0a16.46,16.46,0,0,0-9.6,2.39,13.21,13.21,0,0,0-4.49,4.83A14.37,14.37,0,0,0,33,46.83a16.63,16.63,0,0,0,2.74,9.59ZM80.18,25.59a1.8,1.8,0,0,1,.69,2.47,1.83,1.83,0,0,1-1.09.85,1.79,1.79,0,0,1-1.37-.17,1.81,1.81,0,0,1-.86-1.09,1.79,1.79,0,0,1,.17-1.37,1.81,1.81,0,0,1,1.09-.86A1.79,1.79,0,0,1,80.18,25.59Zm2.69-4.72a1.65,1.65,0,1,1-1.62,2.87,1.64,1.64,0,0,1-.63-2.24,1.7,1.7,0,0,1,1-.79A1.63,1.63,0,0,1,82.87,20.87Zm2.72-4.7a1.53,1.53,0,0,1,.67.88,1.46,1.46,0,0,1-.14,1.13l0,0h0a1.5,1.5,0,0,1-.88.67,1.45,1.45,0,0,1-1-.07h0l-.12-.07a1.53,1.53,0,0,1-.71-.9,1.45,1.45,0,0,1,.07-1v0l.07-.13a1.5,1.5,0,0,1,2-.56l0,0Zm2.5-4.82h0l.13.07a1.31,1.31,0,0,1,.63.8,1.28,1.28,0,0,1,0,.86v0l-.07.12a1.38,1.38,0,0,1-.81.64,1.33,1.33,0,0,1-1-.13,1.32,1.32,0,0,1-.51-1.82,1.33,1.33,0,0,1,.81-.63,1.31,1.31,0,0,1,.85,0Zm5,17.52a1.67,1.67,0,0,1,.45,1.19A1.63,1.63,0,0,1,93,31.21a1.67,1.67,0,0,1-1.19.45,1.63,1.63,0,0,1-1.15-.51A1.67,1.67,0,0,1,90.24,30a1.65,1.65,0,0,1,.51-1.16,1.67,1.67,0,0,1,1.18-.45A1.65,1.65,0,0,1,93.09,28.87Zm4-3.67A1.49,1.49,0,0,1,97,27.26a1.49,1.49,0,0,1-1.07.4,1.47,1.47,0,0,1-1-.46,1.52,1.52,0,0,1-.41-1.07,1.48,1.48,0,0,1,.47-1L95,25h0a1.5,1.5,0,0,1,2.06.1l0,.05Zm3.9-3.78a1.33,1.33,0,0,1-.06,1.88l0,.05h0a1.37,1.37,0,0,1-.9.31,1.32,1.32,0,0,1-.93-.42l0,0v0a1.29,1.29,0,0,1-.32-.89,1.32,1.32,0,0,1,.42-.93,1.3,1.3,0,0,1,1-.37A1.36,1.36,0,0,1,101,21.42Zm-.51,18h0l0,.06a1.63,1.63,0,0,1,.08,1.26,1.62,1.62,0,0,1-.75.92h0l-.06,0a1.65,1.65,0,0,1-1.27.08,1.63,1.63,0,0,1-1-.82,1.7,1.7,0,0,1-.09-1.27,1.65,1.65,0,0,1,3-.28Zm4.9-2.34a1.49,1.49,0,0,1-.59,2h0l-.06,0a1.48,1.48,0,0,1-2-.6h0l0-.06a1.51,1.51,0,0,1-.08-1.14,1.48,1.48,0,0,1,.68-.82h0l.06,0a1.47,1.47,0,0,1,1.14-.08,1.49,1.49,0,0,1,.87.75Zm4.83-2.49v0l0,.06a1.33,1.33,0,0,1-.53,1.75h0l-.06,0a1.35,1.35,0,0,1-1,.07,1.33,1.33,0,0,1-.84-1.69,1.32,1.32,0,0,1,.59-.73h0l.06,0a1.34,1.34,0,0,1,1-.07A1.32,1.32,0,0,1,110.21,34.61Zm-5.7,17.25a1.65,1.65,0,0,1-.28,1.23,1.71,1.71,0,0,1-1.08.67l-.13,0h0a1.67,1.67,0,0,1-1.76-1.38l0-.13v0a1.71,1.71,0,0,1,.31-1.08,1.62,1.62,0,0,1,1.07-.67,1.68,1.68,0,0,1,1.23.28A1.63,1.63,0,0,1,104.51,51.86Zm5.36-.92h0v0a1.52,1.52,0,0,1-.26,1.11,1.44,1.44,0,0,1-.94.6h0a1.43,1.43,0,0,1-1.11-.26,1.48,1.48,0,0,1-.35-2.08,1.49,1.49,0,0,1,1-.61,1.53,1.53,0,0,1,1.11.26A1.48,1.48,0,0,1,109.87,50.94Zm5.36-.88h0v0a1.32,1.32,0,0,1-.23,1,1.35,1.35,0,0,1-.84.54l-.11,0H114a1.33,1.33,0,0,1-.83-.24,1.39,1.39,0,0,1-.55-.87l0-.13v0a1.3,1.3,0,0,1,.24-.84,1.35,1.35,0,0,1,1.87-.31,1.3,1.3,0,0,1,.53.83ZM99.33,64.14a1.8,1.8,0,0,1-.68,1.17,1.81,1.81,0,1,1-.87-3.23h0a1.8,1.8,0,0,1,1.17.68,1.85,1.85,0,0,1,.36,1.34v0Zm5.39.72h0a1.69,1.69,0,0,1-.63,1.07,1.67,1.67,0,0,1-1.22.32h0a1.66,1.66,0,0,1-1.39-1.85v0h0A1.66,1.66,0,0,1,103.3,63h0a1.64,1.64,0,0,1,1.39,1.86Zm5.38.7a1.42,1.42,0,0,1-.57,1,1.46,1.46,0,0,1-1.1.3,1.48,1.48,0,0,1-1.28-1.68,1.42,1.42,0,0,1,.57-1,1.46,1.46,0,0,1,1.1-.3,1.52,1.52,0,0,1,1,.57A1.48,1.48,0,0,1,110.1,65.56Zm5.39.72a1.35,1.35,0,0,1-.51.88,1.31,1.31,0,0,1-1,.26,1.34,1.34,0,0,1-.88-.5,1.39,1.39,0,0,1-.27-1,1.35,1.35,0,0,1,.51-.89,1.37,1.37,0,0,1,1-.26,1.33,1.33,0,0,1,1.15,1.5Zm-14.35,11a1.68,1.68,0,0,1-.92.86h0a1.65,1.65,0,0,1-2.13-2.11v0l0-.1a1.67,1.67,0,0,1,.93-.86h0a1.65,1.65,0,0,1,1.14,0h0l.1,0a1.67,1.67,0,0,1,.86.93h0a1.67,1.67,0,0,1,0,1.26ZM106,79.63a1.43,1.43,0,0,1-.8.71,1.46,1.46,0,0,1-1.14,0l-.06,0h0a1.43,1.43,0,0,1-.71-.8,1.46,1.46,0,0,1,0-1.14l0-.06h0a1.53,1.53,0,0,1,.8-.71,1.5,1.5,0,0,1,1.14,0,1.47,1.47,0,0,1,.78.83h0a1.48,1.48,0,0,1,0,1.15l0,.06h0Zm5,2.2a1.32,1.32,0,0,1-.75.7h0a1.33,1.33,0,0,1-1.72-.78h0a1.34,1.34,0,0,1,0-1,1.32,1.32,0,0,1,.75-.7,1.3,1.3,0,0,1,1,0,1.32,1.32,0,0,1,.69.74h0a1.31,1.31,0,0,1,0,1ZM50.24,90.21h0l-.07,0a2,2,0,0,1-1.12-1,2,2,0,0,1-.1-1.42h0l0-.07a2,2,0,0,1,2.44-1.23h0l.06,0a2,2,0,0,1,1.23,2.44h0l0,.07a2,2,0,0,1-1,1.12A1.93,1.93,0,0,1,50.24,90.21Zm-1.9,5.09a1.82,1.82,0,1,1,1.38-.08A1.82,1.82,0,0,1,48.34,95.3Zm-1.83,5.11a1.63,1.63,0,0,1-.94-.84,1.66,1.66,0,0,1-.07-1.26,1.67,1.67,0,0,1,2-1h0l.06,0a1.61,1.61,0,0,1,.94.85,1.65,1.65,0,0,1,.1,1.18h0l0,.07a1.64,1.64,0,0,1-.85.94A1.61,1.61,0,0,1,46.51,100.41Zm-1.74,5.15h0l-.06,0a1.47,1.47,0,0,1-.85-.77,1.41,1.41,0,0,1-.09-1.05v0l0-.06a1.47,1.47,0,0,1,.77-.85,1.44,1.44,0,0,1,1.06-.09h0l.07,0a1.5,1.5,0,0,1,.85.77,1.54,1.54,0,0,1,.09,1.06h0l0,.07a1.47,1.47,0,0,1-.77.85A1.51,1.51,0,0,1,44.77,105.56Zm-1.91,5.09a1.36,1.36,0,0,1-.76-.69A1.32,1.32,0,0,1,42,109h0l0-.07a1.34,1.34,0,0,1,.68-.76,1.38,1.38,0,0,1,.94-.08h0l.07,0a1.35,1.35,0,0,1,.76.68,1.29,1.29,0,0,1,.05,1,1.31,1.31,0,0,1-.68.76A1.33,1.33,0,0,1,42.86,110.65ZM41.54,85.59a1.91,1.91,0,0,1-.77-1.29,2,2,0,0,1,1.65-2.24,2,2,0,0,1,1.28.25h0l.15.12a2,2,0,0,1,.78,1.29A2,2,0,0,1,44.41,85v0l-.12.15A1.91,1.91,0,0,1,43,86,2,2,0,0,1,41.54,85.59Zm-3.06,4.48h0L38.3,90a1.82,1.82,0,0,1-.71-1.19,1.77,1.77,0,0,1,.22-1.16v0l.11-.15a1.81,1.81,0,1,1,2.91,2.15,1.81,1.81,0,0,1-1.19.72A1.9,1.9,0,0,1,38.48,90.07ZM35,94.22A1.66,1.66,0,0,1,34.71,92l.08-.1v0a1.67,1.67,0,0,1,1-.53,1.63,1.63,0,0,1,1.23.3,1.71,1.71,0,0,1,.65,1.09A1.65,1.65,0,0,1,37.37,94l-.07.1,0,0a1.67,1.67,0,0,1-1,.53,1.63,1.63,0,0,1-1.23-.3l-.1-.08Zm-3.13,4.45a1.54,1.54,0,0,1-.59-1,1.48,1.48,0,0,1,.28-1.1,1.44,1.44,0,0,1,1-.59,1.49,1.49,0,0,1,1.11.27,1.54,1.54,0,0,1,.59,1,1.5,1.5,0,0,1-1.26,1.7,1.45,1.45,0,0,1-1.11-.28ZM28.58,103a1.33,1.33,0,0,1-.28-1.87,1.3,1.3,0,0,1,.87-.53,1.35,1.35,0,0,1,1,.25,1.33,1.33,0,0,1,.52.87,1.39,1.39,0,0,1-.24,1,1.36,1.36,0,0,1-1.87.28ZM30.27,81.9a1.81,1.81,0,0,1,2.91-2.15,1.82,1.82,0,0,1-.38,2.53,1.82,1.82,0,0,1-2.53-.38Zm-4.39,3.21h0a1.67,1.67,0,0,1,.35-2.3h0a1.65,1.65,0,0,1,2,2.66h0a1.64,1.64,0,0,1-1.22.3,1.69,1.69,0,0,1-1.08-.65Zm-4.37,3.23h0a1.48,1.48,0,0,1-.27-1.1,1.49,1.49,0,0,1,.59-1h0a1.52,1.52,0,0,1,1.1-.27,1.49,1.49,0,0,1,1,.59h0a1.54,1.54,0,0,1,.27,1.11,1.5,1.5,0,0,1-.59,1h0a1.48,1.48,0,0,1-1.1.27,1.49,1.49,0,0,1-1-.59Zm-4.37,3.22a1.32,1.32,0,0,1-.25-1,1.28,1.28,0,0,1,.53-.87h0a1.34,1.34,0,0,1,1-.24,1.28,1.28,0,0,1,.87.53h0a1.29,1.29,0,0,1,.24,1,1.33,1.33,0,0,1-.52.87,1.35,1.35,0,0,1-1,.25A1.3,1.3,0,0,1,17.14,91.56Zm7.8-19.7A1.8,1.8,0,0,1,26,69.55a1.78,1.78,0,0,1,1.38.07,1.82,1.82,0,0,1,.93,1A1.78,1.78,0,0,1,28.28,72a1.81,1.81,0,0,1-3.34-.17Zm-5.18,1.56a1.66,1.66,0,0,1,.13-1,1.6,1.6,0,0,1,.81-.79h0l.3-.11h0a1.64,1.64,0,0,1,1.82.94v0l0,.11a1.61,1.61,0,0,1-.06,1.26,1.65,1.65,0,0,1-.94.85,1.61,1.61,0,0,1-1.26-.07,1.66,1.66,0,0,1-.85-.93l-.07-.2Zm-5.13,1.79a1.46,1.46,0,0,1,.12-.9,1.47,1.47,0,0,1,.85-.77l.19-.07h0a1.49,1.49,0,0,1,.91.12,1.55,1.55,0,0,1,.71.72v0l.11.31v0a1.49,1.49,0,0,1-.83,1.61l-.2.15-.17,0a1.48,1.48,0,0,1-1.66-1l-.07-.2ZM9.57,77.26a1.34,1.34,0,1,1,1.7.81,1.33,1.33,0,0,1-1,0A1.31,1.31,0,0,1,9.57,77.26ZM22.78,60.69a1.78,1.78,0,0,1,.48-1.3,1.79,1.79,0,0,1,2.55-.11,1.85,1.85,0,0,1,.59,1.25,1.82,1.82,0,0,1-.48,1.3,1.77,1.77,0,0,1-1.25.59,1.81,1.81,0,0,1-1.89-1.73Zm-5.43.12a1.64,1.64,0,0,1,.44-1.08,1.61,1.61,0,0,1,1.14-.54A1.65,1.65,0,0,1,20.22,62a1.64,1.64,0,0,1-1.14.53H19a1.63,1.63,0,0,1-1.08-.43,1.71,1.71,0,0,1-.54-1.15v-.1ZM11.92,61a1.51,1.51,0,0,1,.39-1,1.49,1.49,0,0,1,1-.49,1.55,1.55,0,0,1,1.07.39,1.48,1.48,0,0,1,.48,1v.11a1.45,1.45,0,0,1-.39,1,1.51,1.51,0,0,1-1,.49h-.11a1.5,1.5,0,0,1-1.45-1.43V61Zm-5.42.33a1.39,1.39,0,0,1,.35-1A1.36,1.36,0,0,1,7.78,60a1.39,1.39,0,0,1,1,.35,1.36,1.36,0,0,1,.43.93,1.34,1.34,0,0,1-2.24,1A1.36,1.36,0,0,1,6.5,61.36ZM24,49.38a1.83,1.83,0,0,1,2.21-1.3,1.83,1.83,0,0,1,1.3,2.21,1.86,1.86,0,0,1-.84,1.11,1.8,1.8,0,0,1-1.37.19,1.82,1.82,0,0,1-1.11-.84A1.79,1.79,0,0,1,24,49.38ZM18.73,48a1.63,1.63,0,0,1,.76-1,1.64,1.64,0,0,1,2.26.59,1.63,1.63,0,0,1,.18,1.21h0v0a1.68,1.68,0,0,1-.77,1A1.65,1.65,0,0,1,18.73,48Zm-5.26-1.37a1.51,1.51,0,0,1,.69-.92,1.51,1.51,0,0,1,2.05.54,1.49,1.49,0,1,1-2.74.38ZM8.22,45.26a1.31,1.31,0,0,1,.62-.81,1.35,1.35,0,0,1,1-.16h0a1.36,1.36,0,0,1,.82.62,1.35,1.35,0,0,1,.15,1h0v0a1.33,1.33,0,0,1-.62.82,1.29,1.29,0,0,1-1,.15h0a1.33,1.33,0,0,1-1-1.62Zm20.22-6.34a1.81,1.81,0,0,1,2.33-.68h0l.13.08a1.85,1.85,0,0,1,.82,1.13,1.77,1.77,0,0,1-.13,1.21v0l-.08.13a1.8,1.8,0,0,1-1.12.82,1.88,1.88,0,0,1-1.21-.13h0L29,41.41a1.82,1.82,0,0,1-.81-1.12,1.75,1.75,0,0,1,.13-1.21v0Zm-4.63-2.85a1.64,1.64,0,0,1,1-.74,1.65,1.65,0,0,1,1.24.19,1.68,1.68,0,0,1,.75,1,1.61,1.61,0,0,1-.2,1.24,1.66,1.66,0,0,1-1,.75,1.64,1.64,0,0,1-1.25-.2,1.61,1.61,0,0,1-.74-1A1.68,1.68,0,0,1,23.81,36.07Zm-4.62-2.85a1.49,1.49,0,1,1,2.54,1.56,1.41,1.41,0,0,1-.92.67,1.48,1.48,0,0,1-1-.09h0l-.13-.08a1.52,1.52,0,0,1-.67-.93,1.46,1.46,0,0,1,.09-1v0Zm-4.63-2.84a1.34,1.34,0,0,1,.83-.6,1.3,1.3,0,0,1,1,.16,1.33,1.33,0,0,1,.6.82,1.28,1.28,0,0,1-.07.84v0l-.08.13a1.32,1.32,0,0,1-1.67.53h0L15,32.21a1.33,1.33,0,0,1-.44-1.83Zm21.2-.16a1.78,1.78,0,0,1,1.31-.45,1.74,1.74,0,0,1,1.24.61,1.8,1.8,0,0,1-.16,2.55l0,0h0a1.81,1.81,0,0,1-1.25.4,1.78,1.78,0,0,1-1.24-.61l0-.05h0a1.8,1.8,0,0,1,.21-2.49Zm-3.53-4.13a1.65,1.65,0,0,1,1.13-.36,1.66,1.66,0,0,1,1.14.56l0,0v0a1.63,1.63,0,0,1,.36,1.13A1.66,1.66,0,0,1,33.16,29,1.71,1.71,0,0,1,32,28.47l0,0h0a1.65,1.65,0,0,1,.2-2.27l0,0Zm-3.65-4a1.52,1.52,0,0,1,1.08-.37,1.53,1.53,0,0,1,1,.5l0,0h0a1.55,1.55,0,0,1,.32,1,1.53,1.53,0,0,1-.5,1l0,0h0a1.5,1.5,0,0,1-2.05-.18,1.52,1.52,0,0,1-.37-1.08,1.49,1.49,0,0,1,.5-1ZM25,18a1.37,1.37,0,0,1,1-.33,1.33,1.33,0,0,1,.92.45,1.37,1.37,0,0,1,.33,1,1.33,1.33,0,0,1-.45.92l0,0h0a1.36,1.36,0,0,1-.9.28,1.31,1.31,0,0,1-.92-.45l0-.05h0A1.33,1.33,0,0,1,25,18ZM45.3,24a1.82,1.82,0,0,1,2.35.82h0l0,.07a1.82,1.82,0,0,1-.81,2.36h0l-.08,0a1.79,1.79,0,0,1-2.35-.82h0l0-.07a1.82,1.82,0,0,1,.81-2.36h0ZM43,19.13h0l.07,0A1.63,1.63,0,0,1,44.31,19a1.66,1.66,0,0,1,.89.78h0l0,.07a1.7,1.7,0,0,1,0,1.27,1.67,1.67,0,0,1-.78.88h0l-.07,0a1.63,1.63,0,0,1-1.26.05,1.65,1.65,0,0,1-.93-.87,1.67,1.67,0,0,1,0-1.26A1.64,1.64,0,0,1,43,19.13Zm-2.16-5a1.49,1.49,0,0,1,2,1.88,1.49,1.49,0,0,1-1.92.88,1.56,1.56,0,0,1-.84-.78A1.51,1.51,0,0,1,40,15,1.53,1.53,0,0,1,40.81,14.14Zm-2.24-5a1.34,1.34,0,0,1,1.81,1.68,1.32,1.32,0,0,1-.7.75,1.34,1.34,0,0,1-1,0,1.37,1.37,0,0,1-.75-.69,1.35,1.35,0,0,1,.66-1.77ZM56.23,20.91a1.81,1.81,0,0,1,2,1.56l0,.12v0a1.74,1.74,0,0,1-.37,1.2,1.84,1.84,0,0,1-1.2.69h-.14a1.81,1.81,0,0,1-.33-3.6Zm-.69-5.39a1.65,1.65,0,1,1-1.1.63A1.64,1.64,0,0,1,55.54,15.52Zm-.7-5.38a1.46,1.46,0,0,1,1.1.29,1.48,1.48,0,0,1,.57,1l0,.13v0a1.53,1.53,0,0,1-.31,1,1.52,1.52,0,0,1-1,.57h-.15a1.45,1.45,0,0,1-.95-.31,1.48,1.48,0,0,1-.57-1,1.46,1.46,0,0,1,.29-1.1,1.48,1.48,0,0,1,1-.57Zm-.54-5.4a1.34,1.34,0,0,1,.83.28,1.32,1.32,0,0,1,.51.88l0,.13v0a1.27,1.27,0,0,1-.27.83,1.29,1.29,0,0,1-.81.49h0l-.19,0h0a1.34,1.34,0,0,1-.83-.28,1.3,1.3,0,0,1-.5-.8l0-.14,0-.1a1.27,1.27,0,0,1,.27-.83,1.35,1.35,0,0,1,.89-.51h.15ZM67.6,21.12a1.84,1.84,0,0,1,1.18.73A1.81,1.81,0,0,1,67,24.69,1.79,1.79,0,0,1,65.83,24a1.8,1.8,0,0,1,.42-2.53A1.77,1.77,0,0,1,67.6,21.12Zm.91-5.36a1.66,1.66,0,0,1,1.36,1.91,1.69,1.69,0,0,1-.67,1.07A1.66,1.66,0,0,1,68,19a1.61,1.61,0,0,1-1.07-.67,1.64,1.64,0,0,1-.28-1.23,1.59,1.59,0,0,1,.67-1.07A1.64,1.64,0,0,1,68.51,15.76Zm.91-5.35a1.48,1.48,0,0,1,1,.6,1.56,1.56,0,0,1,.26,1.12,1.49,1.49,0,0,1-.61,1,1.53,1.53,0,0,1-1.11.26,1.49,1.49,0,0,1-1-.61,1.44,1.44,0,0,1-.26-1.11,1.49,1.49,0,0,1,1.72-1.23Zm.91-5.36a1.34,1.34,0,0,1,1.09,1.54,1.33,1.33,0,0,1-2.4.56,1.34,1.34,0,0,1,1.31-2.1Zm1.6,98.64a7.36,7.36,0,0,1,4.2,2.19,4.57,4.57,0,0,1-1.24,7.41,7.35,7.35,0,0,1-4.68.7A7.27,7.27,0,0,1,66,111.8a4.57,4.57,0,0,1,1.24-7.41A7.34,7.34,0,0,1,71.93,103.69Zm3,3.25a6.08,6.08,0,0,0-7-1.17A3.21,3.21,0,0,0,66.23,108a3.27,3.27,0,0,0,.93,2.72,6.1,6.1,0,0,0,7,1.17,3,3,0,0,0,.84-5Zm7.29-20a11.16,11.16,0,0,1,6.38,3.33,6.77,6.77,0,0,1-1.85,11A11.6,11.6,0,0,1,73.32,99a6.77,6.77,0,0,1,1.84-11A11.17,11.17,0,0,1,82.27,87Zm5.23,4.38A10.11,10.11,0,0,0,75.9,89.4,5.23,5.23,0,0,0,74.47,98a10.09,10.09,0,0,0,11.59,1.94,5.22,5.22,0,0,0,1.44-8.58ZM32,51.83a17.54,17.54,0,0,1-.57-5,16,16,0,0,1,1.89-7.07,14.89,14.89,0,0,1,5-5.4A17.78,17.78,0,0,1,48.4,31.67,15.26,15.26,0,0,1,58.46,25.4a18.39,18.39,0,0,1,8.89.7A16.68,16.68,0,0,1,74.77,31,14.78,14.78,0,0,1,77,34.46a21.47,21.47,0,0,1,11.88,1,15.22,15.22,0,0,1,7,5.46,13.25,13.25,0,0,1,2.23,8.65,21.57,21.57,0,0,1-4.49,10.87,15.34,15.34,0,0,1,.55,12.4,14,14,0,0,1-4.66,5.91,15.16,15.16,0,0,1-7.09,2.79A15.47,15.47,0,0,1,75.75,81,15.38,15.38,0,0,1,63.12,87a18,18,0,0,1-5.39-.85A16,16,0,0,1,53,83.78,11.15,11.15,0,0,1,48.35,76c-5,2-9.22,1.64-12.5,0a13.53,13.53,0,0,1-5.31-5,17,17,0,0,1-2.35-7A14.71,14.71,0,0,1,32,51.83Z"/><text class="cls-2" transform="matrix(0.94, -0.35, 0.35, 0.94, 47.5, 70.31)">FINE</text></svg>