<svg id="Layer_1" data-name="Layer 1" xmlns="http://www.w3.org/2000/svg" viewBox="0 0 122 122"><defs><style>.cls-1,.cls-2,.cls-3{fill:#fff;}.cls-2{isolation:isolate;font-size:0.01px;font-family:HelveticaNeue-Bold, Helvetica Neue;font-weight:700;}.cls-3{font-size:15.8px;font-family:ArialRoundedMTBold, Arial Rounded MT Bold;}</style></defs><title>ComicSwap status icons raw</title><path class="cls-1" d="M43.54,44.68A20.14,20.14,0,0,1,44.78,42a15.55,15.55,0,0,1,5.51-6,9.65,9.65,0,0,1,8.25-.82,12.26,12.26,0,0,1,1.58.65,13.87,13.87,0,0,1,8.23-4.45,12.91,12.91,0,0,1,4.88.17,11.2,11.2,0,0,1,4.44,2.16,12.93,12.93,0,0,1,4.39,7.77,12.91,12.91,0,0,1,5.51.35,15.56,15.56,0,0,1,2.82,1.07,17.53,17.53,0,0,1,6.68,5.75,14.51,14.51,0,0,1,2.68,8.54,15,15,0,0,1-3,8.53,5.16,5.16,0,0,1,2,4.59A9.38,9.38,0,0,1,98,73.34a9.64,9.64,0,0,1-1.66,2.79,6.62,6.62,0,0,1-5.94,2.52,8.87,8.87,0,0,1,.14,2.45,7.07,7.07,0,0,1-1.41,4.24,9.63,9.63,0,0,1-3,3,8.82,8.82,0,0,1-4.59,1.41,9,9,0,0,1-5.92-2.17,10.13,10.13,0,0,1-6,6.83,12.93,12.93,0,0,1-5.79.84,16,16,0,0,1-5.57-1.48c-.24-.12-.48-.24-.71-.37h0a9.09,9.09,0,0,1-4.37-4.67,9.63,9.63,0,0,1-5.1,1.69,14.14,14.14,0,0,1-6.62-1.24,12.48,12.48,0,0,1-5.39-4.58,12.15,12.15,0,0,1-1.73-7.86c-1.78-.28-4.16-2.08-5.94-4.61a15.34,15.34,0,0,1-2.05-4,10.79,10.79,0,0,1-.56-4.53c.36-3.34,2.54-6.54,7.91-8.61a7.56,7.56,0,0,1-.25-1.88c0-.24,0-.49,0-.74a7.85,7.85,0,0,1,1.28-3.88,7.94,7.94,0,0,1,3.63-2.93,12.36,12.36,0,0,1,5.12-.83Zm-26,47.95c1.42-1.51,1.14-2.88.05-3.91a9.29,9.29,0,0,0-4.56-2,7.71,7.71,0,0,0-4.76.41c-1.4.75-1.92,2.41-.36,5.33a.76.76,0,0,1-.07.82h0A4.5,4.5,0,0,0,7,97.65,6.16,6.16,0,0,0,8.54,100,8.72,8.72,0,0,0,11,101.64c1.52.66,3.05.8,3.92.15a.75.75,0,0,1,1.06.15s0,0,0,0c2,2.43,4,2.34,5.49,1.14a7.15,7.15,0,0,0,2.1-3,6.7,6.7,0,0,0,.42-3.6c-.37-1.92-2.07-3.3-5.79-2.58a.76.76,0,0,1-.67-1.28Zm1.1-5a3.69,3.69,0,0,1,1.05,4.58c3.6-.18,5.34,1.64,5.8,4a8.3,8.3,0,0,1-.49,4.42,8.68,8.68,0,0,1-2.58,3.66c-2,1.62-4.68,1.88-7.22-.93a6.17,6.17,0,0,1-4.81-.33,10.14,10.14,0,0,1-2.91-1.94,7.68,7.68,0,0,1-2-2.94,5.88,5.88,0,0,1,.84-5.45c-1.79-3.64-.86-5.85,1.21-7a9.19,9.19,0,0,1,5.73-.57,10.84,10.84,0,0,1,5.34,2.45ZM104,91.55a3.7,3.7,0,0,1,1-4.58,10.79,10.79,0,0,1,5.34-2.44,9.26,9.26,0,0,1,5.73.56c2.07,1.11,3,3.31,1.21,7a5.84,5.84,0,0,1,.83,5.45,7.47,7.47,0,0,1-2,2.94,9.94,9.94,0,0,1-2.91,1.94,6.18,6.18,0,0,1-4.81.34c-2.55,2.81-5.2,2.55-7.23.93A8.73,8.73,0,0,1,98.69,100a8.21,8.21,0,0,1-.5-4.42c.46-2.37,2.21-4.19,5.81-4Zm2.08-3.48c-1.08,1-1.36,2.4.06,3.91a.77.77,0,0,1,.21.68.76.76,0,0,1-.89.6c-3.72-.72-5.41.67-5.79,2.59a6.77,6.77,0,0,0,.43,3.59,7.1,7.1,0,0,0,2.1,3c1.49,1.19,3.52,1.28,5.49-1.15l0,0a.76.76,0,0,1,1.06-.15c.87.66,2.4.52,3.91-.15a8.38,8.38,0,0,0,2.47-1.64A6.07,6.07,0,0,0,116.73,97a4.56,4.56,0,0,0-.89-4.42h0a.73.73,0,0,1-.07-.81c1.56-2.93,1-4.59-.37-5.34a7.76,7.76,0,0,0-4.75-.41,9.34,9.34,0,0,0-4.57,2.06ZM20.49,11.46c-2.51,2-1.57,4-.61,6.17.17.39.36.79.52,1.18a.77.77,0,0,1-.42,1,.76.76,0,0,1-1-.42c-.15-.38-.32-.76-.49-1.14a15.86,15.86,0,0,1-1-2.71,3.2,3.2,0,0,0-3,.07,3.57,3.57,0,0,0-1.11,1.08,3.75,3.75,0,0,0-.57,1.46,2.92,2.92,0,0,0,1,2.82.7.7,0,0,1,.28.55.75.75,0,0,1-.72.79,4.31,4.31,0,0,0-3.74,1.88,3.81,3.81,0,0,0-.52,1.63,4.05,4.05,0,0,0,.2,1.64A2.43,2.43,0,0,0,11,29.11l.17.05a.76.76,0,0,1,.43,1,2.51,2.51,0,0,0,.92,3,5.92,5.92,0,0,0,2.54,1.13,6.78,6.78,0,0,0,3.07-.05,5.18,5.18,0,0,0,3.94-4.84h0a.61.61,0,0,1,.05-.18.76.76,0,0,1,1-.45,2.48,2.48,0,0,0,1.46,0,5.54,5.54,0,0,0,2.3-1.34,7.06,7.06,0,0,0,1.75-2.63,6.46,6.46,0,0,0,.21-3.87,1.07,1.07,0,0,1,0-.25.77.77,0,0,1,.81-.71A2.18,2.18,0,0,0,32,18.55a4.87,4.87,0,0,0,.27-2.35,6,6,0,0,0-.83-2.43,3.41,3.41,0,0,0-3.81-1.63.77.77,0,0,1-.73-.17,4.94,4.94,0,0,0-4.14-1.41,5.38,5.38,0,0,0-2.21.88h0Zm3,18.91a6.5,6.5,0,0,1-5,5.32,8.55,8.55,0,0,1-3.73.07,7.57,7.57,0,0,1-3.2-1.44,4,4,0,0,1-1.6-4A4.06,4.06,0,0,1,7.89,28a5.25,5.25,0,0,1,4-7,4.46,4.46,0,0,1-.57-3.08,5.28,5.28,0,0,1,.81-2A5,5,0,0,1,13.7,14.3a4.5,4.5,0,0,1,3.51-.46,4.1,4.1,0,0,1,.53-1.59,6.38,6.38,0,0,1,1.91-2.05A6.76,6.76,0,0,1,22.5,9.07a6.32,6.32,0,0,1,5.09,1.54A4.81,4.81,0,0,1,32.68,13a7.49,7.49,0,0,1,1,3.07,6.33,6.33,0,0,1-.37,3.09,3.59,3.59,0,0,1-2.87,2.34,7.94,7.94,0,0,1-.44,3.88,8.64,8.64,0,0,1-2.13,3.19,7,7,0,0,1-3,1.71,4.36,4.36,0,0,1-1.47.13ZM94.92,9.28a11.23,11.23,0,0,0,1,2.13.71.71,0,0,1,.1.14,3.59,3.59,0,0,0,.62.71c.77.65,1.93,1,3.89,1a.76.76,0,0,1,.76.75.77.77,0,0,1-.76.76c-2.37,0-3.82-.46-4.86-1.34a5.26,5.26,0,0,1-.62-.63,2.06,2.06,0,0,0-.83.74,3.08,3.08,0,0,0-.43,1.28,4.46,4.46,0,0,0,.08,1.54,3.73,3.73,0,0,0,1.48,2.33h0l0,0A6.19,6.19,0,0,0,98.63,20a10.68,10.68,0,0,0,3.6-.37.73.73,0,0,1,.68.12.76.76,0,0,1,.14,1.06,3.76,3.76,0,0,0-.69,1.69,4.21,4.21,0,0,0,.2,2,4,4,0,0,0,1.33,1.79,5.92,5.92,0,0,0,2.78,1.09h0a.64.64,0,0,1,.3.11,2.74,2.74,0,0,0,2,.39,4.4,4.4,0,0,0,3.11-2.58,2.09,2.09,0,0,0,0-1.61h0a.76.76,0,0,1,.19-.87,3.47,3.47,0,0,0,1.41-2.58,2.79,2.79,0,0,0-.49-1.49,4.28,4.28,0,0,0-1.18-1.18,2.41,2.41,0,0,0-1.86-.56h0a.8.8,0,0,1-.55,0,.76.76,0,0,1-.41-1,4.15,4.15,0,0,0,0-3.26,5.48,5.48,0,0,0-1.32-1.9,7,7,0,0,0-2.07-1.33,5.62,5.62,0,0,0-4.24-.15l-.16,0a.76.76,0,0,1-.89-.59c-.34-1.7-1-2.5-1.74-2.7a2.7,2.7,0,0,0-2.28.68A4.58,4.58,0,0,0,95,9.16l0,.13Zm-1,2.38a3.24,3.24,0,0,1-.47-2.9,6.12,6.12,0,0,1,2.17-3.14,4.2,4.2,0,0,1,3.61-.94,4,4,0,0,1,2.61,3,7.42,7.42,0,0,1,4.6.42A8.43,8.43,0,0,1,109,9.77a6.93,6.93,0,0,1,1.69,2.42,5.61,5.61,0,0,1,.31,3.33,4.93,4.93,0,0,1,1.93.81,5.87,5.87,0,0,1,1.61,1.61,4.35,4.35,0,0,1,.73,2.3,4.7,4.7,0,0,1-1.55,3.38,3.68,3.68,0,0,1-.17,2.24,5.88,5.88,0,0,1-1.66,2.27,5.73,5.73,0,0,1-2.6,1.25,4.14,4.14,0,0,1-3-.52A7.32,7.32,0,0,1,103,27.5,5.5,5.5,0,0,1,101.15,25a5.67,5.67,0,0,1-.27-2.78,5.22,5.22,0,0,1,.2-.87,10.17,10.17,0,0,1-2.58.1,7.55,7.55,0,0,1-4-1.53,5.2,5.2,0,0,1-2.12-3.26,5.7,5.7,0,0,1-.11-2A4.49,4.49,0,0,1,93,12.72a3.3,3.3,0,0,1,1-1.05Zm1.19,71.41a.38.38,0,0,1-.15-.51v0a.38.38,0,0,1,.52-.11l.14.09,7.4,3.9a.38.38,0,0,1,.2.33l0,.85a.38.38,0,0,1-.58.35l-7.44-4.78Zm-2-.65h0a.37.37,0,0,1,.51.14l.08.14L98.71,90a.38.38,0,0,1-.1.53.36.36,0,0,1-.25.06l-.83,0a.35.35,0,0,1-.34-.19l-4.07-7.3L93,83a.38.38,0,0,1,.1-.53ZM29.3,80.63a0,0,0,0,0,0,0,.37.37,0,0,1-.16.51l-.14.08L21.57,86A.38.38,0,0,1,21,85.9a.4.4,0,0,1-.05-.24l0-.84a.35.35,0,0,1,.2-.33l7.4-3.9.14-.09a.38.38,0,0,1,.53.11Zm1.33,0a.38.38,0,0,1,.52-.15h0l0,0a.37.37,0,0,1,.1.52l-.1.15L27.12,88.5a.38.38,0,0,1-.34.2H26a.39.39,0,0,1-.25-.06.38.38,0,0,1-.1-.53l5-7.33ZM41.8,36.83l0,0a.38.38,0,0,1-.53-.09l-.16-.23L32.27,26.06a.41.41,0,0,1-.11-.24.38.38,0,0,1,.35-.41l1.35-.11h0a.36.36,0,0,1,.35.16L41.7,36.1l.16.19a.38.38,0,0,1,0,.53ZM36,29.33l-2.3-3.26-.42,0Zm6.05,9.93a.37.37,0,0,1,.21.49v.06a.38.38,0,0,1-.51.16l-.23-.12L29.43,35a.38.38,0,0,1-.23-.29h0L29,33.38a.38.38,0,0,1,.32-.43.39.39,0,0,1,.24,0l12.26,6.16.24.1ZM29.92,34.41l3.69,1.48L29.85,34l.07.42Zm58.59-.21a.38.38,0,0,1-.53.09l0,0h0a.39.39,0,0,1,0-.54l.17-.19,7.49-10.64a.36.36,0,0,1,.34-.16h0l1.35.11a.38.38,0,0,1,.35.41.38.38,0,0,1-.11.24L88.67,34l-.16.23ZM96,23.5l-2.3,3.26,2.71-3.23ZM87.48,37.21s0,0,0,0a.38.38,0,0,1,.21-.49l.25-.1,12.25-6.17a.34.34,0,0,1,.24,0,.38.38,0,0,1,.32.43l-.19,1.34h0a.39.39,0,0,1-.24.3L88.24,37.29l-.24.12a.38.38,0,0,1-.51-.17v0Zm8.65-3.89,3.7-1.48.06-.41-3.76,1.89ZM51.94,45.86a.75.75,0,1,1-1.5,0A3.58,3.58,0,0,1,51.7,43.5a9.11,9.11,0,0,1,2.54-1.71A8,8,0,0,1,57.48,41a5.34,5.34,0,0,1,4,1.61.75.75,0,1,1-1.07,1.06,3.89,3.89,0,0,0-2.89-1.16,6.43,6.43,0,0,0-2.63.63,7.51,7.51,0,0,0-2.1,1.42,2.31,2.31,0,0,0-.82,1.28ZM36,49.37a9.29,9.29,0,0,0-.78,2A7,7,0,0,0,35,53.16a6,6,0,0,0,.43,2h0v0a1,1,0,0,1,0,.24,5.59,5.59,0,0,0,.3.6,7.17,7.17,0,0,0,2.89,2.73,5.63,5.63,0,0,0,1.3.51.76.76,0,0,1,.55.91.75.75,0,0,1-.92.55A7.44,7.44,0,0,1,38,60.06a8.82,8.82,0,0,1-3.51-3.32l-.19-.37c-4.74,1.82-6.65,4.55-6.95,7.36a9.32,9.32,0,0,0,.48,3.9,14,14,0,0,0,1.86,3.61c1.82,2.58,4.14,4.32,5.35,4a.72.72,0,0,1,.33,0,.76.76,0,0,1,.63.86,10.41,10.41,0,0,0,6.14,11.72A12.63,12.63,0,0,0,48,88.89,7.61,7.61,0,0,0,53,87a15.49,15.49,0,0,1,1.45-6c.05-.15.11-.3.23-.6a.75.75,0,1,1,1.41.53c0,.1-.13.36-.23.62-1.31,3.38-2.9,7.49,2.53,10.63l.64.33a14.23,14.23,0,0,0,5,1.33A11.32,11.32,0,0,0,69.13,93a8.9,8.9,0,0,0,5.37-7,.76.76,0,0,1,1.28-.42,7.92,7.92,0,0,0,5.79,2.6,7.3,7.3,0,0,0,3.81-1.17,8.27,8.27,0,0,0,2.51-2.52l0-.08c.08-.12.14-.24.21-.36a7.87,7.87,0,0,0,.93-3.19,8.15,8.15,0,0,0-.14-1.61,9.87,9.87,0,0,0-3-5.37.76.76,0,1,1,1-1.09A11.74,11.74,0,0,1,89.83,77a5.11,5.11,0,0,0,5.39-1.84,8.52,8.52,0,0,0,1.4-2.36,8,8,0,0,0,.55-2.57,3.53,3.53,0,0,0-1.83-3.6.57.57,0,0,1-.21-.12A.75.75,0,0,1,95,65.45a13.77,13.77,0,0,0,3.24-8.32,13.14,13.14,0,0,0-2.41-7.66,16.12,16.12,0,0,0-6.1-5.24,12.22,12.22,0,0,0-8.1-1.13h-.19c-.18.05-.35.09-.52.15a12,12,0,0,0-5.74,4,.76.76,0,1,1-1.18-1,13.5,13.5,0,0,1,6.48-4.48l.11,0a11.47,11.47,0,0,0-3.87-6.93A9.6,9.6,0,0,0,72.89,33a11.34,11.34,0,0,0-4.31-.16,12.36,12.36,0,0,0-7.66,4.36.75.75,0,0,1-1,.21,11.26,11.26,0,0,0-1.88-.83,8.19,8.19,0,0,0-7,.69,14,14,0,0,0-5,5.42,19.18,19.18,0,0,0-1.32,3,.75.75,0,0,1-.77.55,11.18,11.18,0,0,0-5,.7,6.42,6.42,0,0,0-2.95,2.37l-.05.07Z"/><text class="cls-2" transform="translate(-0.5 117.42)">Created by Olena Panasovska</text><text class="cls-2" transform="translate(-0.5 117.43)">from the Noun Project</text><text class="cls-3" transform="translate(43.3 79.01) rotate(-19.24)">GOOD</text></svg>