<svg id="Layer_1" data-name="Layer 1" xmlns="http://www.w3.org/2000/svg" viewBox="0 0 122 132"><defs><style>.cls-1,.cls-2,.cls-3{fill:#fff;}.cls-2{isolation:isolate;font-size:0.01px;font-family:HelveticaNeue-Bold, Helvetica Neue;font-weight:700;}.cls-3{font-size:15.98px;font-family:ArialRoundedMTBold, Arial Rounded MT Bold;}</style></defs><title>ComicSwap status icons raw</title><path class="cls-1" d="M25.55,70.75a.78.78,0,0,1-.34,1.53,11,11,0,0,1-4.33-2,17,17,0,0,0,.89,13,18.43,18.43,0,0,0,5.08,6.5,13.84,13.84,0,0,0,7.21,3c3.63.36,7.62-.88,11.55-4.45a.79.79,0,0,1,.43-.21.78.78,0,0,1,.89.66c.57,3.82,3.18,7,6.71,9a19.83,19.83,0,0,0,12.41,2.29,16.25,16.25,0,0,0,12-8.19.8.8,0,0,1,.79-.4c5,.69,8.84-.1,11.63-1.79a12,12,0,0,0,5-6.16,15,15,0,0,0,.94-4.17s0,0,0,0a18.39,18.39,0,0,0-.1-4A17.39,17.39,0,0,0,91,64.65a2.8,2.8,0,0,1-1-2.06,6.28,6.28,0,0,1,.38-2.19c1.67-4.94,1.93-9,1.23-12.29h0a14.08,14.08,0,0,0-.47-1.67,12.62,12.62,0,0,0-5.05-6.52,15.77,15.77,0,0,0-7.6-2.5,15.16,15.16,0,0,0-9.2,2.17,21.41,21.41,0,0,1,2.57,5.75.79.79,0,0,1-.55,1,.78.78,0,0,1-1-.54,20,20,0,0,0-2.76-5.91l0,0a18.26,18.26,0,0,0-4.16-4.29,16.86,16.86,0,0,0-8.86-3.34,15.45,15.45,0,0,0-8.14,1.67,15.43,15.43,0,0,1-1.79,1.06c-3.24,2.21-6.13,5.81-8.19,11h0a.76.76,0,0,1-.72.49c-6.89,0-11.84,3.24-14.6,7.38a15,15,0,0,0-2.34,5.78,11.4,11.4,0,0,0,.36,5.57,8.44,8.44,0,0,0,6.46,5.59ZM76.84,29.46A2,2,0,0,1,78,32a1.93,1.93,0,0,1-1,1.11,2,2,0,0,1-1.35.12h0l-.13,0a2,2,0,0,1-1.12-1,2,2,0,0,1-.11-1.35v0l0-.14a1.93,1.93,0,0,1,1-1.11A1.9,1.9,0,0,1,76.84,29.46Zm1.87-5.11a1.82,1.82,0,0,1,1.08,2.33,1.77,1.77,0,0,1-.93,1,1.83,1.83,0,0,1-2.42-.87,1.85,1.85,0,0,1-.06-1.39,1.87,1.87,0,0,1,.94-1A1.85,1.85,0,0,1,78.71,24.35Zm1.87-5.11a1.7,1.7,0,0,1,.94.86,1.61,1.61,0,0,1,0,1.26,1.64,1.64,0,0,1-2.12,1,1.6,1.6,0,0,1-.93-.85,1.64,1.64,0,0,1,.8-2.2A1.66,1.66,0,0,1,80.58,19.24Zm1.91-5.1a1.55,1.55,0,0,1,.81.76,1.52,1.52,0,0,1,0,1.15v0h0a1.46,1.46,0,0,1-.75.81,1.52,1.52,0,0,1-1,.1h0l-.14,0a1.54,1.54,0,0,1-.85-.77,1.43,1.43,0,0,1-.09-1v0l0-.14a1.51,1.51,0,0,1,1.92-.89h0ZM84.16,9h0l.13,0a1.32,1.32,0,0,1,.85,1.54v0l0,.14a1.38,1.38,0,0,1-.7.76,1.33,1.33,0,0,1-1,0,1.36,1.36,0,0,1-.76-.69,1.38,1.38,0,0,1,0-1A1.33,1.33,0,0,1,84.16,9Zm2.92,24.25a1.83,1.83,0,0,1,.36,2.54,1.81,1.81,0,0,1-2.54.36l-.05,0h0a1.76,1.76,0,0,1-.65-1.15,1.83,1.83,0,0,1,.35-1.34l0-.05h0a1.83,1.83,0,0,1,2.49-.3Zm3.28-4.34A1.63,1.63,0,0,1,91,30a1.73,1.73,0,0,1-.32,1.23,1.68,1.68,0,0,1-1.1.64,1.66,1.66,0,0,1-1.54-2.64,1.65,1.65,0,0,1,1.09-.64A1.61,1.61,0,0,1,90.36,28.89Zm3.35-4.29a1.51,1.51,0,0,1,.24,2,1.52,1.52,0,0,1-1,.58,1.5,1.5,0,0,1-1.11-.29,1.49,1.49,0,0,1-.58-1,1.5,1.5,0,0,1,.29-1.11l0,0h0a1.55,1.55,0,0,1,.94-.53,1.5,1.5,0,0,1,1.11.29l0,0Zm3.23-4.39a1.3,1.3,0,0,1,.51.88,1.35,1.35,0,0,1-.25,1l0,0v0a1.37,1.37,0,0,1-1.83.2l0,0h0a1.37,1.37,0,0,1-.2-1.83A1.37,1.37,0,0,1,96,20,1.4,1.4,0,0,1,96.94,20.21ZM95,41.3h0l0,.06a1.81,1.81,0,0,1,.32,1.34,1.83,1.83,0,0,1-.66,1.14h0l-.06,0a1.83,1.83,0,0,1-1.35.32,1.81,1.81,0,0,1,.57-3.58A1.89,1.89,0,0,1,95,41.3Zm4.41-3.19h0l0,.06a1.67,1.67,0,0,1-.3,2.26h0l-.06,0a1.66,1.66,0,0,1-2.31-.37,1.67,1.67,0,0,1-.3-1.23,1.7,1.7,0,0,1,.66-1.08,1.63,1.63,0,0,1,1.23-.29,1.65,1.65,0,0,1,1,.59ZM103.88,35a1.48,1.48,0,0,1,.26,1.11,1.46,1.46,0,0,1-.53.93h0l-.06,0a1.48,1.48,0,0,1-1.11.26,1.45,1.45,0,0,1-.92-.53h0l0-.06a1.48,1.48,0,0,1-.26-1.11,1.46,1.46,0,0,1,.53-.93h0l.06,0a1.51,1.51,0,0,1,2.09.34Zm4.35-3.26h0l0,.06a1.36,1.36,0,0,1,.24,1,1.3,1.3,0,0,1-.47.82v0l-.06,0a1.31,1.31,0,0,1-1,.23,1.31,1.31,0,0,1-1.11-1.52,1.29,1.29,0,0,1,.46-.83h0l.06,0a1.37,1.37,0,0,1,1-.24A1.3,1.3,0,0,1,108.23,31.73Zm-7.11,55.61a1.66,1.66,0,0,1-1,.74,1.69,1.69,0,0,1-1.25-.21,1.67,1.67,0,0,1-.73-1,1.57,1.57,0,0,1,.21-1.24,1.66,1.66,0,0,1,1-.74,1.69,1.69,0,0,1,1.25.21,1.61,1.61,0,0,1,.73,1A1.59,1.59,0,0,1,101.12,87.34Zm4.61,2.89a1.45,1.45,0,0,1-.93.67,1.47,1.47,0,0,1-1.13-.19,1.52,1.52,0,0,1-.67-.93,1.57,1.57,0,0,1,.19-1.13l0-.08h0a1.44,1.44,0,0,1,.87-.57,1.49,1.49,0,0,1,1.12.18l.09,0v0a1.49,1.49,0,0,1,.57.87A1.44,1.44,0,0,1,105.73,90.23Zm4.54,3a1.32,1.32,0,0,1-.77.5,1.37,1.37,0,0,1-1-.17,1.34,1.34,0,0,1-.6-.84,1.31,1.31,0,0,1,.17-1,1.36,1.36,0,0,1,.84-.59,1.28,1.28,0,0,1,1,.17l.09,0h0a1.35,1.35,0,0,1,.5.77,1.3,1.3,0,0,1-.17,1l0,.08ZM91.64,96a1.85,1.85,0,0,1-1.31.44,1.89,1.89,0,0,1-1.25-.63,1.79,1.79,0,0,1,.19-2.55,1.75,1.75,0,0,1,1.31-.44,1.79,1.79,0,0,1,1.24.62,1.76,1.76,0,0,1,.44,1.31A1.84,1.84,0,0,1,91.64,96Zm3.56,4.11a1.62,1.62,0,0,1-1.19.4,1.66,1.66,0,0,1-1-2.86h0l.05,0a1.62,1.62,0,0,1,1.19-.4,1.67,1.67,0,0,1,1.1.53h0l0,0a1.66,1.66,0,0,1-.16,2.33Zm3.61,4.08,0,0a1.47,1.47,0,0,1-1.08.36,1.45,1.45,0,0,1-1-.47h0l0,0a1.52,1.52,0,0,1-.37-1.08,1.5,1.5,0,0,1,.52-1,1.47,1.47,0,0,1,1.08-.36,1.48,1.48,0,0,1,1,.51,1.47,1.47,0,0,1,.36,1.08,1.45,1.45,0,0,1-.47,1h0Zm3.52,4.15a1.32,1.32,0,0,1-1,.33,1.36,1.36,0,0,1-.92-.46,1.31,1.31,0,0,1-.32-1,1.33,1.33,0,0,1,.45-.92,1.34,1.34,0,1,1,1.75,2ZM82.15,99.75a1.81,1.81,0,0,1-2.38-.92,1.84,1.84,0,0,1,0-1.38h0a1.87,1.87,0,0,1,1-1,1.82,1.82,0,0,1,2.39.92,1.84,1.84,0,0,1,0,1.38h0A1.79,1.79,0,0,1,82.15,99.75Zm2.21,5a1.69,1.69,0,0,1-1.27,0,1.63,1.63,0,0,1-.92-.87l-.07-.16v0a1.66,1.66,0,0,1,0-1.08,1.62,1.62,0,0,1,.87-.91l.16-.07h0a1.57,1.57,0,0,1,1.07,0,1.67,1.67,0,0,1,.92.87,1.65,1.65,0,0,1,0,1.27,1.68,1.68,0,0,1-.87.91Zm2,5a1.47,1.47,0,0,1-1,0h0a1.49,1.49,0,0,1-.84-.78,1.58,1.58,0,0,1,0-1.15,1.53,1.53,0,0,1,.79-.83,1.5,1.5,0,0,1,2,.76l.07.16v0a1.4,1.4,0,0,1,0,1,1.43,1.43,0,0,1-.79.83l-.15.07Zm2.4,4.91a1.34,1.34,0,0,1-1,0A1.3,1.3,0,0,1,87,114a1.34,1.34,0,0,1,0-1h0a1.3,1.3,0,0,1,.7-.74,1.33,1.33,0,0,1,1.77.68,1.34,1.34,0,0,1,0,1A1.32,1.32,0,0,1,88.76,114.68Zm-19.61-7a1.67,1.67,0,0,1-1.84-1.44,1.67,1.67,0,0,1,1.44-1.85h.06a1.59,1.59,0,0,1,1.16.35,1.65,1.65,0,0,1,.63,1.1v0h0a1.63,1.63,0,0,1-.34,1.16A1.66,1.66,0,0,1,69.15,107.64Zm.67,5.42a1.5,1.5,0,0,1-1.36-2.41,1.47,1.47,0,0,1,1-.56h.06a1.51,1.51,0,0,1,1,.31,1.48,1.48,0,0,1,.57,1v0h0a1.42,1.42,0,0,1-.31,1,1.48,1.48,0,0,1-1,.57Zm.57,5.41A1.33,1.33,0,0,1,69,117.29v-.05h0a1.3,1.3,0,0,1,.28-.92,1.35,1.35,0,0,1,.9-.51h.06a1.35,1.35,0,0,1,.92.29,1.27,1.27,0,0,1,.51.89v0h0a1.4,1.4,0,0,1-.29.93,1.3,1.3,0,0,1-.89.5h-.06ZM18.23,89.58a1.5,1.5,0,0,1,0-.91,1.47,1.47,0,0,1,.72-.89l.18-.11h0a1.61,1.61,0,0,1,.92,0,1.52,1.52,0,0,1,.82.6l0,0,.16.28v0a1.53,1.53,0,0,1,0,.92,1.48,1.48,0,0,1-.6.82l-.17.18h-.17a1.57,1.57,0,0,1-.91,0,1.49,1.49,0,0,1-.9-.72l-.1-.18v0Zm-4.67,2.86a1.32,1.32,0,0,1-.12-1,1.3,1.3,0,0,1,.64-.8,1.32,1.32,0,0,1,1.81.52A1.33,1.33,0,0,1,15.37,93a1.29,1.29,0,0,1-1,.11A1.31,1.31,0,0,1,13.56,92.44ZM13.2,74.63a1.49,1.49,0,0,1,.22-1,1.51,1.51,0,0,1,.95-.65,1.5,1.5,0,0,1,1.77,1.15l0,.09v0A1.51,1.51,0,0,1,15,75.89l-.09,0h0a1.53,1.53,0,0,1-1-.23,1.51,1.51,0,0,1-.65-1v-.1ZM7.88,75.86a1.32,1.32,0,0,1,.19-1,1.34,1.34,0,0,1,.84-.58,1.34,1.34,0,1,1-.45,2.43A1.34,1.34,0,0,1,7.88,75.86Zm5.17-16.8a1.54,1.54,0,0,1,.53-1,1.51,1.51,0,0,1,1.1-.34,1.44,1.44,0,0,1,1,.53A1.5,1.5,0,0,1,16,59.32a1.54,1.54,0,0,1-.53,1,1.53,1.53,0,0,1-1.1.34,1.42,1.42,0,0,1-1-.53A1.5,1.5,0,0,1,13.05,59.06Zm-5.42-.49a1.3,1.3,0,0,1,.48-.91A1.33,1.33,0,0,1,9,57.35h0a1.33,1.33,0,0,1,.91.47,1.37,1.37,0,0,1,.31.94h0v0a1.33,1.33,0,0,1-.47.91,1.37,1.37,0,0,1-.94.31h0a1.3,1.3,0,0,1-.91-.48A1.32,1.32,0,0,1,7.63,58.57ZM51,21.91a1.65,1.65,0,1,1,1,3.16A1.66,1.66,0,0,1,50.74,25a1.68,1.68,0,0,1-.8-1A1.64,1.64,0,0,1,51,21.91ZM49.46,16.7a1.47,1.47,0,0,1,1.13.11,1.44,1.44,0,0,1,.73.88l0,.12v0a1.47,1.47,0,0,1-.15,1,1.44,1.44,0,0,1-.88.73l-.12,0h0a1.47,1.47,0,0,1-1-.15,1.48,1.48,0,0,1-.73-.89,1.47,1.47,0,0,1,.11-1.13A1.48,1.48,0,0,1,49.46,16.7ZM48,11.44a1.37,1.37,0,0,1,.87.14,1.3,1.3,0,0,1,.65.79l0,.12v0a1.36,1.36,0,0,1-.13.87,1.38,1.38,0,0,1-.73.63h0l-.18.06h0a1.33,1.33,0,0,1-1.5-.85L47,13.1V13a1.3,1.3,0,0,1,.13-.87,1.31,1.31,0,0,1,.8-.65l.12,0Zm15.85,14a1.82,1.82,0,0,1,0,3.63,1.82,1.82,0,0,1-1.29-.53,1.82,1.82,0,0,1,0-2.57A1.82,1.82,0,0,1,63.89,25.44Zm0-5.44a1.64,1.64,0,0,1,1.17.48,1.65,1.65,0,0,1,0,2.35,1.67,1.67,0,0,1-2.34,0,1.65,1.65,0,0,1,0-2.35A1.64,1.64,0,0,1,63.9,20Zm0-5.44a1.49,1.49,0,0,1,1.5,1.49,1.5,1.5,0,1,1-3,0,1.49,1.49,0,0,1,1.49-1.49Zm0-5.45a1.35,1.35,0,0,1,1.34,1.34,1.35,1.35,0,0,1-.39,1,1.36,1.36,0,0,1-.95.39,1.33,1.33,0,0,1-1.34-1.34,1.35,1.35,0,0,1,1.34-1.34ZM20.5,51.9a5.5,5.5,0,0,0-1.94-1.81,11,11,0,0,0-3.74-1.21.77.77,0,0,1-.65-.89.77.77,0,0,1,.61-.64v0a16.36,16.36,0,0,0,6-2.35A3,3,0,0,0,22.1,43.3a2.75,2.75,0,0,0-.66-2.16c-1-1.39-3-3-6.35-4.82a.78.78,0,0,1-.31-1.06.79.79,0,0,1,.92-.38c3.81,1,6.7,1.21,8.86.77a7,7,0,0,0,3.75-1.93,7.47,7.47,0,0,0,1.8-3.3,18.62,18.62,0,0,0,0-8.12A.78.78,0,0,1,31.6,22h0c1,3.93,2.07,6.79,3.26,7.71.87.68,2.05-.2,3.7-3.34a.79.79,0,0,1,1.47.52h0a14.4,14.4,0,0,0-.28,5.59,2.49,2.49,0,0,0,.78,1.49A1.84,1.84,0,0,0,42,34.2a6.31,6.31,0,0,0,1.81-.61c.18-.13.37-.25.55-.36a17,17,0,0,1,10.29-2.6,18.29,18.29,0,0,1,9.68,3.64,19.87,19.87,0,0,1,4.06,4,16.64,16.64,0,0,1,10.18-2.45,17.29,17.29,0,0,1,8.36,2.75,14.25,14.25,0,0,1,5.66,7.31c.16.48.31,1,.43,1.49a3.46,3.46,0,0,0,1.38.34,2.48,2.48,0,0,0,1.27-.3,2.85,2.85,0,0,0,1.1-1.13,8.3,8.3,0,0,0,.88-4.05.79.79,0,0,1,1.56-.11l.09.53h0a14.78,14.78,0,0,0,1.27,4.63c.83,1.36,2.5,1.58,6.28-.72a.77.77,0,0,1,1.07.26.79.79,0,0,1,0,.87h0a17.33,17.33,0,0,0-3.27,6.85,3.2,3.2,0,0,0,.28,2.13,2.44,2.44,0,0,0,1.88,1c1.82.23,4.74-.34,9.11-2.1a.78.78,0,0,1,1,.43.77.77,0,0,1-.26.92c-6.35,4.67-7.72,8.94-7,12.46s3.67,6.42,5.89,8.18h0l0,0a.78.78,0,0,1-.93,1.25h0c-3.33-2.33-6-3.84-7.47-3.78-1.11,0-1.43,1.47-.67,4.94A.79.79,0,0,1,106,81a.8.8,0,0,1-.86-.39h0c-1.7-3.09-3.17-4.94-4.34-5.16-1-.19-1.9,1.09-2.77,4.18a17,17,0,0,1-1,4.53,13.6,13.6,0,0,1-5.69,6.94c-3,1.81-7,2.68-12.12,2.07a17.78,17.78,0,0,1-12.91,8.52,21.07,21.07,0,0,1-7-.15l-.21,0a2.58,2.58,0,0,0,.36,1.8,7.47,7.47,0,0,0,3.77,2.67h0a.78.78,0,0,1-.43,1.5l-.55-.1a14.73,14.73,0,0,0-4.78-.45c-1.57.29-2.37,1.77-1.55,6.12a.79.79,0,0,1-.63.92.8.8,0,0,1-.8-.34h0a17.16,17.16,0,0,0-5.25-5.49,3.13,3.13,0,0,0-2.09-.49A2.46,2.46,0,0,0,45.55,109c-.86,1.62-1.36,4.55-1.27,9.27a.78.78,0,0,1-1.53.22h0c-2.12-7.59-5.62-10.38-9.18-10.92s-7.36,1.19-9.79,2.64a.78.78,0,0,1-.81-1.33c3.34-2.28,5.68-4.2,6.15-5.62.35-1-.87-1.87-4.38-2.38a.79.79,0,0,1-.67-.89.81.81,0,0,1,.7-.67,15.82,15.82,0,0,0,5.46-1.54,2.3,2.3,0,0,0,1.07-1.09,1.62,1.62,0,0,0-.22-1.28,9.66,9.66,0,0,0-2.74-2.75A16.55,16.55,0,0,1,25.89,91a20,20,0,0,1-5.53-7,18.47,18.47,0,0,1-.71-14.82,9.86,9.86,0,0,1-2-3.5,13,13,0,0,1-.42-6.33,16.61,16.61,0,0,1,2.58-6.39c.23-.35.48-.69.74-1ZM41.08,35.78a3,3,0,0,1-1.54-.63,4.07,4.07,0,0,1-1.34-2.39A10.84,10.84,0,0,1,38,30c-1.49,1.73-2.85,1.9-4.13.91a7.08,7.08,0,0,1-1.84-2.65,13.81,13.81,0,0,1-.44,2.57,9.07,9.07,0,0,1-2.18,4,8.58,8.58,0,0,1-4.57,2.37,16.17,16.17,0,0,1-5.26.09,13.61,13.61,0,0,1,3.12,3,4.29,4.29,0,0,1,.92,3.38,4.57,4.57,0,0,1-1.87,2.67A13.32,13.32,0,0,1,18,48.1a10.11,10.11,0,0,1,1.36.64,7,7,0,0,1,2.21,1.94,18.83,18.83,0,0,1,13.57-5.81A26.72,26.72,0,0,1,41.08,35.78Zm-9,58.32a5.72,5.72,0,0,1,.35.56,3,3,0,0,1,.32,2.55A3.83,3.83,0,0,1,31,99.12a11,11,0,0,1-2.59,1c2.08.83,2.68,2,2.17,3.58a7.15,7.15,0,0,1-1.89,2.62,12.73,12.73,0,0,1,5.08-.35c3.37.5,6.67,2.66,9,8a15,15,0,0,1,1.34-5.74A3.94,3.94,0,0,1,46.8,106a4.68,4.68,0,0,1,3.17.65,15.49,15.49,0,0,1,4,3.59c-.09-3.29,1.17-4.59,3.15-5a7.47,7.47,0,0,1,1.91-.08,6.11,6.11,0,0,1-1-1.19,4.07,4.07,0,0,1-.54-3,20.69,20.69,0,0,1-4.67-1.93,14.61,14.61,0,0,1-7.21-8.74c-4,3.24-8,4.35-11.75,4a13.67,13.67,0,0,1-1.81-.3ZM98,75.58c.89-1.41,1.93-1.94,3.1-1.73s2.31,1.23,3.54,2.93c0-2.22,1-3.21,2.57-3.28a7.26,7.26,0,0,1,3.13.84,12.75,12.75,0,0,1-2.14-4.63c-.72-3.32.13-7.17,4.26-11.26a15.08,15.08,0,0,1-5.84.77,3.93,3.93,0,0,1-3-1.68,4.62,4.62,0,0,1-.51-3.19,15.15,15.15,0,0,1,1.92-5c-3.05,1.25-4.71.53-5.76-1.19a7.84,7.84,0,0,1-.75-1.76,5.23,5.23,0,0,1-.37.75,4.56,4.56,0,0,1-1.7,1.71,4.15,4.15,0,0,1-2,.49,5.2,5.2,0,0,1-1-.14,26.1,26.1,0,0,1-1.51,11.72,4.39,4.39,0,0,0-.3,1.61,1.3,1.3,0,0,0,.45,1,18.92,18.92,0,0,1,5.93,11.68c0,.15,0,.29,0,.44Zm1.34-32.9c0,.2,0,.09,0,0Z"/><text class="cls-2" transform="translate(5 123.04)">Created by Olena Panasovska</text><text class="cls-2" transform="translate(5 123.05)">from the Noun Project</text><text class="cls-3" transform="translate(42.64 81.66) rotate(-24.19)">MINT</text></svg>