<svg id="Layer_1" data-name="Layer 1" xmlns="http://www.w3.org/2000/svg" viewBox="0 0 122 122"><defs><style>.cls-1,.cls-2{fill:#fff;}.cls-2{font-size:16.62px;font-family:ArialRoundedMTBold, Arial Rounded MT Bold;letter-spacing:0.01em;}.cls-3{letter-spacing:0em;}</style></defs><title>ComicSwap status icons raw</title><path class="cls-1" d="M27,24.11c4.74,2.08,10.55,4.12,14.88,3,4.18-1.08,7-5.29,6.29-15.71a.9.9,0,0,1,.84-1,.91.91,0,0,1,.74.3,35.29,35.29,0,0,1,3.95,5.32C57.32,21.7,61,27.43,73,22.43a.9.9,0,0,1,1.18.48.94.94,0,0,1,.07.37,15.33,15.33,0,0,0,2,7.62,7.31,7.31,0,0,0,4.43,3.31,10.82,10.82,0,0,0,6.34-.58c3.6-1.32,7.56-4.18,11.41-8.58a.9.9,0,0,1,1.5,1h0c-1.82,3.9-3.83,9.13-4,13.74-.13,4.37,1.51,8.21,6.84,9.72a.9.9,0,0,1,.05,1.72,10.7,10.7,0,0,0-5.61,5.32,17,17,0,0,0-1.71,7.33,22.28,22.28,0,0,0,1.52,8.36A24,24,0,0,0,108.86,85a.89.89,0,0,1,.4,1.21.9.9,0,0,1-1.11.44c-4.56-1.46-8-1.86-10.6-1.53a7.22,7.22,0,0,0-5.08,2.65,8.67,8.67,0,0,0-1.53,5,19.17,19.17,0,0,0,1.64,7.89.9.9,0,0,1-1.58.85h0a8.44,8.44,0,0,0-3.21-3,6.3,6.3,0,0,0-3.25-.7,6.58,6.58,0,0,0-3.15,1.06,8.43,8.43,0,0,0-2.91,3.32.91.91,0,0,1-1.21.39.9.9,0,0,1-.41-.43h0c-1.41-3.08-3.31-4.88-5.46-5.73a11.17,11.17,0,0,0-7.46,0,24.66,24.66,0,0,0-7.68,4.17c-4.18,3.26-7.29,7.43-7.52,10.28a.9.9,0,1,1-1.79-.13h0c0-5.08-1-8.8-2.54-11.35A8.88,8.88,0,0,0,34.2,95.23a12,12,0,0,0-6,3.78.9.9,0,0,1-1.5-1,19,19,0,0,0,1.65-7.89A6.33,6.33,0,0,0,25.64,85a12.68,12.68,0,0,0-6.47-1.8A42.25,42.25,0,0,0,4.45,85.67a.89.89,0,0,1-.74-1.62L5,83.18c2-1.3,4.11-2.72,6.1-4.3,7-5.5,12.46-13.28,2.61-25.72a.9.9,0,0,1,.15-1.26.92.92,0,0,1,.69-.19v0a16.39,16.39,0,0,0,9.11-1.34,13.9,13.9,0,0,0,6-5.14A12.26,12.26,0,0,0,31.37,37c-.43-3.39-2.11-7.28-5.47-11.54a.89.89,0,0,1,.15-1.26A.87.87,0,0,1,27,24.1Zm-6.1,17.46a.45.45,0,0,1,.44.46.46.46,0,0,1-.46.44l-7.56-.18a.44.44,0,0,1-.44-.45.45.45,0,0,1,.46-.44Zm-4.75-6L9.77,31.9V33ZM9.55,30.72,22.17,38.1a.45.45,0,0,1-.39.81L9.18,33.72a.45.45,0,0,1-.28-.43l0-2.17a.69.69,0,0,1,0-.13.64.64,0,0,0,0-.07.1.1,0,0,1,0-.05.36.36,0,0,1,.15-.15h0l.14-.05a.55.55,0,0,1,.18,0l.07,0,0,0ZM72.42,10.09a.45.45,0,0,1,.9,0L73.56,17a.45.45,0,0,1-.9,0Zm9.69,1a.46.46,0,0,1,.63-.1.45.45,0,0,1,.1.63l-5.52,7.61a.45.45,0,0,1-.73-.53Zm21.43,31.2a.45.45,0,0,1-.46-.44.46.46,0,0,1,.44-.46l10.5-.23a.45.45,0,1,1,0,.89Zm-1.74-5.73,17.52-10.26,0,0,.07,0a.37.37,0,0,1,.18,0,.33.33,0,0,1,.14,0h0a.38.38,0,0,1,.16.15l0,.05a.25.25,0,0,1,0,.07.34.34,0,0,1,0,.14l0,3a.47.47,0,0,1-.28.43l-17.5,7.21a.45.45,0,0,1-.38-.81Zm17.3-9.08-11.26,6.58,11.23-4.62ZM36.92,33.67c3.43,1.51,7.49,3,10.48,2.23s4.85-3.79,4.31-11.36a.56.56,0,0,1,1-.41,20.39,20.39,0,0,1,3,4.49c2.23,4.11,4.42,8.15,12.73,4.68a.56.56,0,0,1,.74.3.62.62,0,0,1,0,.23,10.18,10.18,0,0,0,1.66,5.46,7.7,7.7,0,0,0,4.42,3.1,10.94,10.94,0,0,0,6.1-.24,18.46,18.46,0,0,0,8.28-5.67.56.56,0,0,1,.93.61h0c-.42.91-.92,1.86-1.43,2.84a36.07,36.07,0,0,0-2.82,6.34c-.82,2.9-.38,5.43,3.52,6.53a.57.57,0,0,1,0,1.08,7.76,7.76,0,0,0-4.09,3.87,12.26,12.26,0,0,0-1.24,5.32,16,16,0,0,0,1.1,6.07,17.36,17.36,0,0,0,8.52,9.24.58.58,0,0,1,.25.76.57.57,0,0,1-.7.28A18.32,18.32,0,0,0,86,78.31a5.24,5.24,0,0,0-3.72,2A6.35,6.35,0,0,0,81.18,84a14,14,0,0,0,1.2,5.72.56.56,0,0,1-1,.53h0A6.22,6.22,0,0,0,79,88a4.52,4.52,0,0,0-2.39-.51,4.78,4.78,0,0,0-2.3.77,6.17,6.17,0,0,0-2.14,2.43.56.56,0,0,1-1,0h0a7.52,7.52,0,0,0-4-4.17,8.16,8.16,0,0,0-5.43,0,17.88,17.88,0,0,0-5.56,3c-3,2.37-5.29,5.4-5.46,7.48a.55.55,0,0,1-.6.51.56.56,0,0,1-.52-.6h0a15.3,15.3,0,0,0-1.84-8.23,6.73,6.73,0,0,0-3.4-2.9,6.66,6.66,0,0,0-4-.15A8.67,8.67,0,0,0,36,88.36a.57.57,0,0,1-.8,0,.55.55,0,0,1-.14-.65A13.81,13.81,0,0,0,36.28,82a4.66,4.66,0,0,0-2-3.78,9.33,9.33,0,0,0-4.71-1.31,30.4,30.4,0,0,0-10.63,1.78.55.55,0,0,1-.71-.35.57.57,0,0,1,.24-.67l1.83-1.19a52.37,52.37,0,0,0,4.41-3c4.48-3.55,7.46-8.4.76-16.85a.56.56,0,0,1,.1-.79.55.55,0,0,1,.42-.12h0a12.58,12.58,0,0,0,9.24-2.81,12.91,12.91,0,0,0,3-3.33,11.12,11.12,0,0,0,1.58-4.25c.46-3.17-.45-6.87-3.54-10.79a.57.57,0,0,1,.09-.79.54.54,0,0,1,.57-.08h0ZM47.69,37c-2.77.73-6.22-.24-9.37-1.5a14.26,14.26,0,0,1,2.59,10,12.28,12.28,0,0,1-1.74,4.7A14.62,14.62,0,0,1,27.1,57c6.27,8.58,3,13.65-1.71,17.41-1,.81-2.11,1.55-3.18,2.25a27.8,27.8,0,0,1,7.4-.78,10.29,10.29,0,0,1,5.29,1.5A5.71,5.71,0,0,1,37.4,82a12.43,12.43,0,0,1-.55,4.11,9.4,9.4,0,0,1,3.22-1.55,7.62,7.62,0,0,1,8.69,3.55,14.16,14.16,0,0,1,1.87,6,19.53,19.53,0,0,1,4.9-5.45,19.12,19.12,0,0,1,5.92-3.21,9.2,9.2,0,0,1,6.17,0,8.16,8.16,0,0,1,4.12,3.82,7.08,7.08,0,0,1,2-1.95,5.93,5.93,0,0,1,2.84-1,5.72,5.72,0,0,1,3,.63,6.6,6.6,0,0,1,.93.59,13.65,13.65,0,0,1-.42-3.65,7.37,7.37,0,0,1,1.35-4.33,6.28,6.28,0,0,1,4.47-2.38,14.63,14.63,0,0,1,4.64.24,18.26,18.26,0,0,1-5.94-7.9,17.21,17.21,0,0,1-1.17-6.48,13.4,13.4,0,0,1,1.36-5.81,9.17,9.17,0,0,1,3.45-3.81c-3.53-1.51-3.88-4.3-3-7.47A35.5,35.5,0,0,1,88,39.68a18,18,0,0,1-6.32,3.56,12.08,12.08,0,0,1-6.71.25,8.82,8.82,0,0,1-5.06-3.55,10.91,10.91,0,0,1-1.8-5.3c-8.66,3.33-11-1-13.43-5.46a32.19,32.19,0,0,0-1.76-3c.17,7-2.06,10-5.23,10.81ZM42.3,28.85c-3.93,1-8.75-.2-13.1-1.87a23.33,23.33,0,0,1,3.95,9.82,14,14,0,0,1-1.94,9.4A15.66,15.66,0,0,1,24.42,52a18.43,18.43,0,0,1-8.06,1.65c9.09,12.7,3.22,20.81-4.13,26.62-1,.76-1.93,1.47-2.89,2.14a37.85,37.85,0,0,1,9.92-1,14.29,14.29,0,0,1,7.4,2.11,8.05,8.05,0,0,1,3.53,6.52,16.8,16.8,0,0,1-.68,5.41,13,13,0,0,1,4.24-2,11,11,0,0,1,6.63.26,11.07,11.07,0,0,1,5.56,4.71,19.63,19.63,0,0,1,2.57,8,27.6,27.6,0,0,1,6.64-7.28,26.44,26.44,0,0,1,8.26-4.48,13,13,0,0,1,8.64,0,11.42,11.42,0,0,1,5.69,5.19,9.74,9.74,0,0,1,2.67-2.58,8.36,8.36,0,0,1,4-1.34,8.08,8.08,0,0,1,4.17.89,8.19,8.19,0,0,1,1.05.64,19.35,19.35,0,0,1-.52-4.78A10.55,10.55,0,0,1,91,86.67a8.92,8.92,0,0,1,6.28-3.35,20.34,20.34,0,0,1,6,.25,25.44,25.44,0,0,1-7.9-10.71,24.09,24.09,0,0,1-1.64-9,18.63,18.63,0,0,1,1.9-8.11,12.9,12.9,0,0,1,4.65-5.23c-4.75-2.12-6.25-6.19-6.13-10.76a32.33,32.33,0,0,1,2.27-10,27.39,27.39,0,0,1-8.8,5.64,12.59,12.59,0,0,1-7.39.63,9,9,0,0,1-5.51-4.09,16.15,16.15,0,0,1-2.22-7.31C60.1,29.3,56.1,23.13,52.15,17c-.69-1.06-1.37-2.11-2.1-3.1.14,9.62-3.16,13.72-7.76,14.91Z"/><text class="cls-2" transform="translate(40.02 74.59) rotate(-20.2)">O<tspan class="cls-3" x="13.37" y="0">WN</tspan></text></svg>