<svg id="Layer_1" data-name="Layer 1" xmlns="http://www.w3.org/2000/svg" viewBox="0 0 122 122"><defs><style>.cls-1,.cls-2{fill:#fff;}.cls-2{font-size:17.92px;font-family:ArialRoundedMTBold, Arial Rounded MT Bold;}</style></defs><title>ComicSwap status icons raw</title><path class="cls-1" d="M15.51,38.74A60.46,60.46,0,0,1,80.6,25.31a.75.75,0,0,1,.41,1v0l-3.23,8.27,21.94-3.83L86.48,12.85l-3.64,9.07a.74.74,0,0,1-1,.41h0A59.2,59.2,0,0,0,15.51,38.74ZM28.93,94.19a.47.47,0,0,1-.09.65.46.46,0,0,1-.65-.08l-2.58-3.37a.46.46,0,0,1,.08-.65.42.42,0,0,1,.24-.09L30,90a.46.46,0,0,1,.53.38.45.45,0,0,1-.38.53l-3.34.55Zm77.56-12.62A60.43,60.43,0,0,1,41.41,95,.74.74,0,0,1,41,94v0l3.23-8.27L22.3,89.57l13.23,17.89,3.64-9.07a.74.74,0,0,1,1-.41h0A59.2,59.2,0,0,0,106.5,81.57ZM84.9,93.86a58.66,58.66,0,0,0,31.68-28.94.74.74,0,0,1,1.37.58A60.59,60.59,0,0,1,40.26,99.62l-3.85,9.6a.87.87,0,0,1-.26.35.75.75,0,0,1-1-.16L20.38,89.48a.66.66,0,0,1-.13-.31.74.74,0,0,1,.6-.86l24.38-4.25a.79.79,0,0,1,.43,0,.75.75,0,0,1,.42,1l-3.45,8.82a58.73,58.73,0,0,0,42.27,0Zm8-67.92a.46.46,0,0,1,.08-.65.47.47,0,0,1,.66.08l2.58,3.37a.46.46,0,0,1-.08.65.48.48,0,0,1-.24.09l-4.08.67a.46.46,0,0,1-.53-.38.46.46,0,0,1,.38-.53L95,28.69Zm-55.8.51a58.72,58.72,0,0,0-31.68,29,.75.75,0,0,1-1.37-.59A60.59,60.59,0,0,1,81.74,20.69l3.85-9.6a.78.78,0,0,1,.26-.34.75.75,0,0,1,1,.16l14.73,19.92a.7.7,0,0,1,.13.32.74.74,0,0,1-.6.85L76.77,36.25a.71.71,0,0,1-.43,0,.74.74,0,0,1-.42-1l3.45-8.83a58.73,58.73,0,0,0-42.27,0Z"/><text class="cls-2" transform="matrix(0.94, -0.33, 0.33, 0.94, 31.05, 76.38)">TRADE</text></svg>