<svg id="Layer_1" data-name="Layer 1" xmlns="http://www.w3.org/2000/svg" viewBox="0 0 122 122"><defs><style>.cls-1,.cls-2,.cls-3{fill:#fff;}.cls-2{isolation:isolate;font-size:0.01px;font-family:HelveticaNeue-Bold, Helvetica Neue;font-weight:700;}.cls-3{font-size:15.69px;font-family:ArialRoundedMTBold, Arial Rounded MT Bold;}</style></defs><title>ComicSwap status icons raw</title><path class="cls-1" d="M83.79,29.85c-3.38,4.54-6.33,7.47-9.26,8-3.38.63-6.52-1.81-9.91-8.43-3.32,9.28-8.2,10.9-13.32,9.34C47,37.47,42.7,33.9,39,30.85c-1-.8-1.88-1.55-2.73-2.22,6.65,9.68,8.46,15.54,6.9,18.89s-6.26,4.13-12.75,3.6c.77.45,1.64.91,2.55,1.39,3.57,1.91,7.64,4.07,8.81,6.9s-.52,6.16-8.46,10c7.82.2,10.66,2.14,10.76,5,.11,3.39-4,7.85-8,12.18,1-.52,2-1.12,2.95-1.7,2.9-1.73,5.66-3.38,7.89-3.11,3.06.38,4.76,4.13,3.66,15.57.77-1.07,1.5-2.13,2.2-3.15,2.45-3.59,4.6-6.73,7-8.15,3.18-1.89,6.53-.85,10.93,5.82.79-8.28,3.69-11.29,8-10.68,3.63.5,8.26,3.77,13.47,8.67l-.51-1c-2.37-4.42-4.5-8.41-4.62-11.7-.15-4.27,2.87-7.16,12.52-7.86-5.43-4.16-6.27-7.11-4.67-9.43s6.23-3.88,10.77-5.31a42.74,42.74,0,0,0,8-3.06c-15.82,1.83-21.19-.06-21.63-3.42s4.37-8,8.32-11.82l1.74-1.68c-11.92,6.94-16.86,7.81-18.58,5-1.17-1.91-.64-5.39.24-9.78ZM73.12,28.67a2,2,0,0,1-1.19,3.74h0l-.13,0A2,2,0,0,1,70.55,30v0l0-.13a2,2,0,0,1,1-1.11A2,2,0,0,1,73.12,28.67ZM75,23.58a1.8,1.8,0,0,1,1,.93A1.81,1.81,0,0,1,73.75,27a1.8,1.8,0,0,1-1-.93A1.8,1.8,0,0,1,75,23.58Zm1.86-5.1a1.66,1.66,0,0,1,.94.86,1.61,1.61,0,0,1,0,1.26,1.66,1.66,0,0,1-.85.93,1.66,1.66,0,0,1-2.19-.8,1.66,1.66,0,0,1-.06-1.26,1.61,1.61,0,0,1,.86-.93A1.64,1.64,0,0,1,76.85,18.48Zm1.91-5.07a1.55,1.55,0,0,1,.81.76,1.49,1.49,0,0,1,.05,1.14v0h0a1.46,1.46,0,0,1-.75.81,1.49,1.49,0,0,1-1,.1h0l-.13-.05a1.54,1.54,0,0,1-.85-.77,1.43,1.43,0,0,1-.09-1v0l0-.13a1.54,1.54,0,0,1,.77-.85,1.45,1.45,0,0,1,1.14,0Zm1.66-5.16h0l.13,0a1.4,1.4,0,0,1,.76.69,1.37,1.37,0,0,1,.09.85v0l0,.13a1.36,1.36,0,0,1-.69.76,1.38,1.38,0,0,1-1,0,1.31,1.31,0,0,1-.75-.69,1.33,1.33,0,0,1-.05-1,1.34,1.34,0,0,1,.69-.75A1.3,1.3,0,0,1,80.42,8.25Zm22.84,37.18a1.63,1.63,0,0,1-.07,1.25,1.68,1.68,0,0,1-1,.84l-.12,0h0a1.66,1.66,0,0,1-1.95-1.06l0-.13v0a1.69,1.69,0,0,1,.12-1.11,1.65,1.65,0,0,1,.94-.83,1.62,1.62,0,0,1,1.26.08,1.65,1.65,0,0,1,.83.94Zm5.14-1.79h0v0a1.49,1.49,0,0,1-.07,1.14,1.45,1.45,0,0,1-.83.74h0a1.51,1.51,0,0,1-1.13-.07,1.47,1.47,0,0,1-.76-.86,1.49,1.49,0,0,1,.07-1.14,1.49,1.49,0,0,1,2.74.14Zm5.14-1.75h0v0a1.32,1.32,0,0,1-.8,1.68l-.11.06h-.07a1.36,1.36,0,0,1-.87-.11,1.31,1.31,0,0,1-.68-.76l0-.13v0a1.34,1.34,0,0,1,1.89-1.48,1.36,1.36,0,0,1,.67.74Zm-7.92,18h0a1.63,1.63,0,0,1-.44,1.15,1.67,1.67,0,0,1-1.15.52h0a1.63,1.63,0,0,1-1.15-.44,1.68,1.68,0,0,1-.53-1.15v0h0a1.64,1.64,0,0,1,1.6-1.68h0a1.62,1.62,0,0,1,1.16.45,1.67,1.67,0,0,1,.52,1.15ZM111,59.7a1.49,1.49,0,0,1-2.51,1.14,1.5,1.5,0,0,1-.07-2.11,1.49,1.49,0,0,1,1-.47,1.51,1.51,0,0,1,1.07.4A1.55,1.55,0,0,1,111,59.7Zm5.42-.17a1.33,1.33,0,1,1-2.31-.87,1.33,1.33,0,0,1,.93-.42,1.31,1.31,0,0,1,1,.35A1.35,1.35,0,0,1,116.46,59.53ZM105.3,66.31a1.63,1.63,0,0,1-.77,1h0a1.63,1.63,0,0,1-1.25.17,1.68,1.68,0,0,1-1-.77,1.63,1.63,0,0,1-.19-1.13v0l0-.1a1.6,1.6,0,0,1,.77-1h0a3,3,0,0,1,1.13-.2h0l.11,0a1.67,1.67,0,0,1,1,.77h0a3.08,3.08,0,0,1,.16,1.24Zm5.22,1.49a1.51,1.51,0,0,1-1.81,1l-.07,0h0a1.5,1.5,0,0,1-1-1.81l0-.07h0a1.44,1.44,0,0,1,.67-.82,1.47,1.47,0,0,1,1.13-.16,1.52,1.52,0,0,1,.9.7h0a1.43,1.43,0,0,1,.15,1.13v.07h0Zm5.25,1.34a1.36,1.36,0,0,1-.62.8h0a1.32,1.32,0,0,1-1.83-.49h0a1.33,1.33,0,0,1,1.5-1.95,1.28,1.28,0,0,1,.81.62h0A1.33,1.33,0,0,1,115.77,69.14ZM88.48,92.76a1.65,1.65,0,0,1-2.73-1.35,1.7,1.7,0,0,1,.52-1.1h0l0,0a1.62,1.62,0,0,1,1.19-.4,1.67,1.67,0,0,1,1.1.53h0l0,0a1.62,1.62,0,0,1,.4,1.19,1.64,1.64,0,0,1-.56,1.13Zm3.59,4.07,0,0a1.52,1.52,0,0,1-1.08.37,1.56,1.56,0,0,1-1-.47h0l0,0a1.55,1.55,0,0,1-.36-1.08,1.52,1.52,0,0,1,.52-1,1.5,1.5,0,0,1,1.07-.36,1.52,1.52,0,0,1,1,.51,1.5,1.5,0,0,1-.11,2.07Zm3.5,4.14a1.32,1.32,0,0,1-1,.32,1.39,1.39,0,0,1-.92-.46,1.35,1.35,0,0,1-.32-1,1.32,1.32,0,0,1,.46-.92,1.29,1.29,0,0,1,1-.32,1.34,1.34,0,0,1,.92.46,1.32,1.32,0,0,1,.32,1,1.34,1.34,0,0,1-.46.91ZM77.18,89.79a2,2,0,0,1-2.59-1,2,2,0,0,1,2.5-2.64,2,2,0,0,1,.09,3.63Zm2.2,5A1.8,1.8,0,0,1,77,92.46h0a1.82,1.82,0,0,1,1-1,1.82,1.82,0,0,1,2.38.91,1.84,1.84,0,0,1,0,1.38h0A1.77,1.77,0,0,1,79.38,94.75Zm2.19,5a1.62,1.62,0,0,1-1.26,0,1.68,1.68,0,0,1-.91-.87l-.07-.16v0a1.57,1.57,0,0,1,0-1.07,1.63,1.63,0,0,1,.87-.92l.16-.07h0a1.63,1.63,0,0,1,1.07,0,1.66,1.66,0,0,1,.92.87,1.64,1.64,0,0,1,0,1.25,1.6,1.6,0,0,1-.87.92Zm2,5a1.41,1.41,0,0,1-.95,0h0a1.51,1.51,0,0,1-.83-.78,1.46,1.46,0,0,1,0-1.14,1.51,1.51,0,0,1,.78-.83,1.48,1.48,0,0,1,1.15,0,1.51,1.51,0,0,1,.83.78l.07.16v0a1.51,1.51,0,0,1,0,.94,1.49,1.49,0,0,1-.79.83l-.16.07ZM86,109.63a1.34,1.34,0,0,1-1.79-1.7h0a1.33,1.33,0,0,1,.7-.74,1.35,1.35,0,0,1,1.76.68,1.33,1.33,0,0,1-.67,1.76ZM66.41,97.78a1.83,1.83,0,0,1-1.27-.38,1.8,1.8,0,0,1-.69-1.2v0h0a1.74,1.74,0,0,1,.38-1.27,1.77,1.77,0,0,1,1.2-.68h0a1.81,1.81,0,0,1,2,1.58v0h0a1.83,1.83,0,0,1-.38,1.27,1.79,1.79,0,0,1-1.2.68h-.06Zm.69,5.37a1.57,1.57,0,0,1-1.21-.34,1.65,1.65,0,0,1,.81-2.93h.06a1.69,1.69,0,0,1,1.16.35,1.64,1.64,0,0,1,.62,1.1v0h0a1.69,1.69,0,0,1-.35,1.16A1.64,1.64,0,0,1,67.1,103.15Zm.66,5.38a1.53,1.53,0,0,1-1.1-.3,1.51,1.51,0,0,1-.56-1,1.49,1.49,0,0,1,.31-1.1,1.47,1.47,0,0,1,1-.56h.06a1.43,1.43,0,0,1,1,.31,1.49,1.49,0,0,1,.56,1v0h0a1.5,1.5,0,0,1-1.31,1.6Zm.57,5.41a1.31,1.31,0,0,1-.92-.28,1.3,1.3,0,0,1-.5-.89v0h0a1.35,1.35,0,0,1,.28-.92,1.37,1.37,0,0,1,.89-.51h.06a1.32,1.32,0,0,1,.93.28,1.3,1.3,0,0,1,.5.89v0h0a1.35,1.35,0,0,1-.28.92,1.4,1.4,0,0,1-.89.51h-.07ZM55.64,102a1.64,1.64,0,0,1-1.07-.68,1.65,1.65,0,0,1-.27-1.23,1.64,1.64,0,0,1,1.82-1.35h.08a1.66,1.66,0,0,1,1.36,1.83h0l0,.07a1.6,1.6,0,0,1-.68,1.06,1.68,1.68,0,0,1-1.23.28Zm-.86,5.33h-.09a1.47,1.47,0,0,1-1-.62,1.51,1.51,0,0,1-.26-1v0l0-.06a1.47,1.47,0,0,1,.61-1,1.41,1.41,0,0,1,1-.26h.09a1.5,1.5,0,0,1,1,.61,1.54,1.54,0,0,1,.26,1h0v.07a1.47,1.47,0,0,1-.62,1A1.51,1.51,0,0,1,54.78,107.32Zm-1.05,5.34a1.31,1.31,0,0,1-.86-.55,1.32,1.32,0,0,1-.24-.91h0v-.07A1.37,1.37,0,0,1,54.1,110h0l.07,0a1.29,1.29,0,0,1,.86.55,1.36,1.36,0,0,1,.22,1,1.33,1.33,0,0,1-.55.86,1.28,1.28,0,0,1-1,.22ZM33,75.62A1.94,1.94,0,0,1,33.72,73a1.93,1.93,0,0,1,2.6.65h0l0,.1a1.94,1.94,0,0,1,.17,1.5,1.91,1.91,0,0,1-.82,1.1v0l-.1,0a2,2,0,0,1-1.5.18A2,2,0,0,1,33,75.62Zm-4.75,2.62a1.77,1.77,0,0,1-.16-1.38,1.8,1.8,0,0,1,.86-1.08,1.84,1.84,0,0,1,1.37-.16,1.79,1.79,0,0,1,1.08.87,1.75,1.75,0,0,1,.16,1.37,1.76,1.76,0,0,1-.86,1.08,1.84,1.84,0,0,1-1.37.16A1.81,1.81,0,0,1,28.21,78.24Zm-4.85,2.4a1.68,1.68,0,0,1,0-1,1.59,1.59,0,0,1,.67-.91v0l.29-.16h0a1.69,1.69,0,0,1,1,0,1.59,1.59,0,0,1,.91.67h0l.05.11a1.58,1.58,0,0,1,.15,1.25,1.68,1.68,0,0,1-.79,1,1.62,1.62,0,0,1-1.25.14,1.66,1.66,0,0,1-1-.78l-.1-.19v0Zm-4.75,2.6a1.57,1.57,0,0,1,0-.91,1.52,1.52,0,0,1,.71-.89l.18-.1h.05a1.57,1.57,0,0,1,.91,0,1.52,1.52,0,0,1,.82.59l0,0,.16.29v0a1.49,1.49,0,0,1,0,.91,1.56,1.56,0,0,1-.59.82l-.18.17h-.16a1.46,1.46,0,0,1-1.81-.68l-.1-.18v-.05ZM14,86.09a1.34,1.34,0,0,1,1.53-1.93,1.3,1.3,0,0,1,.8.64,1.33,1.33,0,0,1,.12,1,1.37,1.37,0,0,1-.64.8,1.29,1.29,0,0,1-1,.11A1.31,1.31,0,0,1,14,86.09ZM24.24,67.6A1.81,1.81,0,0,1,27,65.7a1.87,1.87,0,0,1,.79,1.14,1.79,1.79,0,0,1-.26,1.36,1.8,1.8,0,0,1-3.28-.6Zm-5.32,1a1.67,1.67,0,0,1,.25-1.14A1.65,1.65,0,0,1,21.45,67a1.67,1.67,0,0,1,.72,1,1.66,1.66,0,0,1-1.28,2l-.08,0h0a1.64,1.64,0,0,1-1.85-1.29l0-.08v0ZM13.6,69.72a1.48,1.48,0,0,1,.23-1,1.52,1.52,0,0,1,.94-.65,1.46,1.46,0,0,1,1.12.21,1.52,1.52,0,0,1,.65.94l0,.09h0a1.49,1.49,0,0,1-.23,1,1.52,1.52,0,0,1-.94.65l-.09,0h0a1.49,1.49,0,0,1-1-.23,1.52,1.52,0,0,1-.65-.94l0-.09ZM8.32,70.94a1.34,1.34,0,0,1,1-1.58,1.34,1.34,0,0,1,1.58,1A1.34,1.34,0,0,1,9.9,72a1.33,1.33,0,0,1-1-.19A1.3,1.3,0,0,1,8.32,70.94ZM29,56.78h0v0a2,2,0,0,1,.69-1.34A2,2,0,0,1,31.1,55a2,2,0,0,1,1.79,2.13,2,2,0,0,1-.7,1.34,1.94,1.94,0,0,1-1.43.45,2,2,0,0,1-1.34-.7A2,2,0,0,1,29,56.78Zm-5.4-.52A1.77,1.77,0,0,1,24.2,55a1.79,1.79,0,0,1,1.32-.41,1.75,1.75,0,0,1,1.22.64,1.8,1.8,0,0,1,.42,1.32,1.75,1.75,0,0,1-.64,1.22,1.8,1.8,0,0,1-1.32.42A1.77,1.77,0,0,1,24,57.58,1.79,1.79,0,0,1,23.56,56.26Zm-5.41-.48a1.66,1.66,0,0,1,1.79-1.5A1.66,1.66,0,0,1,21.45,56h0v0a1.64,1.64,0,0,1-.58,1.12,1.62,1.62,0,0,1-1.21.38A1.68,1.68,0,0,1,18.53,57,1.64,1.64,0,0,1,18.15,55.78Zm-5.4-.49a1.51,1.51,0,0,1,1.62-1.36,1.5,1.5,0,0,1-.26,3,1.52,1.52,0,0,1-1-.53A1.5,1.5,0,0,1,12.75,55.29Zm-5.39-.48a1.37,1.37,0,0,1,.47-.91,1.34,1.34,0,0,1,.93-.31h0A1.33,1.33,0,0,1,10,55h0v0a1.33,1.33,0,0,1-.47.91,1.34,1.34,0,0,1-.93.31h0a1.3,1.3,0,0,1-.9-.48A1.32,1.32,0,0,1,7.36,54.81ZM37.27,23.34h0l.07,0a1.65,1.65,0,0,1,2.23.37h0l0,.07A1.65,1.65,0,0,1,39.27,26h0l-.07.05a1.65,1.65,0,0,1-1.92-2.68Zm-2.94-4.56a1.49,1.49,0,0,1,2.07.4,1.49,1.49,0,1,1-2.07-.4Zm-3-4.5a1.31,1.31,0,0,1,1-.21,1.36,1.36,0,0,1,.86.57,1.31,1.31,0,0,1,.2,1,1.32,1.32,0,0,1-1.56,1.06,1.3,1.3,0,0,1-.85-.56,1.35,1.35,0,0,1-.21-1A1.31,1.31,0,0,1,31.31,14.28Zm21,13.79a1.9,1.9,0,0,1,1.35.18,2,2,0,0,1,.95,1.16l0,.12v0a1.9,1.9,0,0,1-.18,1.35,1.93,1.93,0,0,1-1.16,1,1.94,1.94,0,0,1-2.44-1.31,1.92,1.92,0,0,1,.14-1.49,2,2,0,0,1,1.16-1l.12,0h0Zm-1.72-5.16A1.75,1.75,0,0,1,52,23a1.82,1.82,0,0,1,.88,1.07l0,.12v0a1.79,1.79,0,0,1-.17,1.23,1.75,1.75,0,0,1-1.07.88l-.12,0h0a1.8,1.8,0,0,1-2.11-1.24,1.75,1.75,0,0,1,.13-1.37,1.82,1.82,0,0,1,1.07-.88Zm-1.58-5.19a1.66,1.66,0,0,1,1.26.12,1.68,1.68,0,0,1,.8,1A1.64,1.64,0,0,1,50,20.87a1.64,1.64,0,0,1-2-1.09,1.65,1.65,0,0,1,.11-1.26A1.68,1.68,0,0,1,49.05,17.72Zm-1.57-5.18a1.51,1.51,0,0,1,1.13.1,1.48,1.48,0,0,1,.73.89l0,.12v0a1.45,1.45,0,0,1-.14,1,1.49,1.49,0,0,1-.88.73l-.12,0h0a1.41,1.41,0,0,1-1-.14,1.51,1.51,0,0,1-.72-.88,1.46,1.46,0,0,1,1-1.86ZM46,7.3a1.36,1.36,0,0,1,.87.13,1.32,1.32,0,0,1,.65.79l0,.12v0a1.28,1.28,0,0,1-.13.86,1.36,1.36,0,0,1-.72.63h0l-.18.06h0a1.31,1.31,0,0,1-1.48-.85L45,9v-.1A1.3,1.3,0,0,1,45.12,8a1.35,1.35,0,0,1,.79-.65l.12,0ZM61.85,21.24a1.81,1.81,0,1,1-1.28,3.09,1.81,1.81,0,0,1,0-2.56A1.8,1.8,0,0,1,61.85,21.24Zm0-5.42a1.66,1.66,0,0,1,1.65,1.65A1.67,1.67,0,0,1,63,18.64a1.65,1.65,0,0,1-2.33,0,1.66,1.66,0,0,1-.48-1.17,1.64,1.64,0,0,1,1.65-1.65Zm0-5.42a1.47,1.47,0,1,1-1.06.43A1.5,1.5,0,0,1,61.88,10.4Zm0-5.43a1.35,1.35,0,0,1,1,.39,1.36,1.36,0,0,1,.39.95,1.32,1.32,0,0,1-.39.94,1.34,1.34,0,0,1-1.89,0,1.32,1.32,0,0,1-.39-.94A1.36,1.36,0,0,1,61,5.36,1.32,1.32,0,0,1,61.89,5ZM43,92.78,38.8,105.27a.79.79,0,0,1-1,.5l-.18-.09h0L32,101.92a.78.78,0,0,1-.22-1.08.63.63,0,0,1,.17-.19L41.73,92a.79.79,0,0,1,1.1.07.76.76,0,0,1,.15.76h0Zm-3.58,5.75,1.17-3.48-6.92,6.12,4,2.64ZM99,80.35l14.2,10.48a.78.78,0,0,1,.16,1.09l-.14.14h0L106,97.76a.78.78,0,0,1-1.1-.12,1.13,1.13,0,0,1-.12-.21L97.75,81.27a.78.78,0,0,1,.4-1,.77.77,0,0,1,.8.1Zm6.17,6.48-4.77-3.51,5.51,12.59,5.55-4.43ZM102.9,76.59l9.52,1.67a.79.79,0,0,1,.64.91,1.55,1.55,0,0,1-.08.23l-2.09,4.49a.78.78,0,0,1-1,.38.62.62,0,0,1-.17-.11L102.26,78a.78.78,0,0,1-.1-1.1.81.81,0,0,1,.74-.27ZM107.4,79l-1.89-.33,4.4,3.68,1.25-2.69L107.4,79ZM35.51,44.15l-23.3.6a.78.78,0,0,1-.8-.76,1,1,0,0,1,0-.18l1.37-6.7a.77.77,0,0,1,.92-.61h0l22,6.11a.78.78,0,0,1-.22,1.53ZM23.84,42.89l6.45-.16L14.15,38.24l-1,4.92ZM24.54,31,12.12,26.63a.77.77,0,0,1-.48-1,.66.66,0,0,1,.09-.19h0l3.83-5.63a.77.77,0,0,1,1.08-.2.69.69,0,0,1,.18.16l8.58,10a.78.78,0,0,1-.08,1.1.79.79,0,0,1-.78.14Zm-5.69-3.64,3.47,1.21-6-7-2.69,3.95,5.26,1.84Zm72.33,2.74,3.17-12.79a.78.78,0,0,1,1-.57,1,1,0,0,1,.18.07h0l6,3.29a.8.8,0,0,1,.31,1.06,1,1,0,0,1-.15.2L92.5,30.8a.78.78,0,0,1-1.1,0,.79.79,0,0,1-.22-.75Zm3.09-6-.88,3.57L99.8,21l-4.19-2.31-1.34,5.41Zm-20,12.29c3-.56,6.29-4.42,10.36-10.29a.78.78,0,0,1,.82-.37.8.8,0,0,1,.62.92c0,.1-.21,1-.39,1.9-1,4.83-1.76,8.7-.76,10.33,1.35,2.21,6.56.58,20.36-7.87h0a.78.78,0,0,1,1.13.94c-.48,1.31-2.54,3.28-4.9,5.54-3.7,3.54-8.21,7.86-7.86,10.49s5.8,4,22.45,1.76a.81.81,0,0,1,.6.14.78.78,0,0,1,.17,1.09c-1.75,2.38-6.22,3.79-10.69,5.19-4.28,1.35-8.56,2.7-10,4.71-1.23,1.78,0,4.37,6.07,8.55a.78.78,0,0,1-.41,1.43c-10.22.36-13.36,2.75-13.23,6.37.1,2.92,2.16,6.77,4.44,11C94,89.9,95,91.68,95.82,93.48a.78.78,0,0,1-.16.89.78.78,0,0,1-1.1,0c-6.39-6.52-12-11.06-16-11.62-3.69-.51-6.06,2.73-6.44,11.59a.76.76,0,0,1-.38.68.78.78,0,0,1-1.07-.28c-4.44-7.49-7.43-8.9-10.09-7.33-2.09,1.24-4.15,4.25-6.5,7.68-1.22,1.79-2.53,3.69-3.95,5.53a.77.77,0,0,1-.71.29.78.78,0,0,1-.69-.86c1.53-12.5.39-16.41-2-16.7-1.71-.2-4.24,1.31-6.9,2.89a30.06,30.06,0,0,1-6.58,3.27h0a.81.81,0,0,1-.74-.17.79.79,0,0,1-.06-1.11c.72-.8,1.52-1.65,2.32-2.51,3.86-4.16,7.84-8.45,7.75-11.24-.08-2.33-3.36-3.79-12.83-3.47a.78.78,0,0,1-.37-1.5c9.75-4,12-7.07,11-9.49s-4.76-4.34-8.1-6.12A24.15,24.15,0,0,1,27,50.59h0a.76.76,0,0,1-.21-.64.78.78,0,0,1,.87-.68c7.33.92,12.68.66,14.11-2.4s-.92-9.48-9.12-20.65A.78.78,0,0,1,33.55,25c1.75.77,4,2.59,6.44,4.64,3.6,3,7.81,6.43,11.77,7.63,4.6,1.4,9-.38,12-10.09a.74.74,0,0,1,.42-.51.78.78,0,0,1,1,.37c3.36,7.14,6.19,9.82,9.07,9.29Z"/><text class="cls-2" transform="translate(3 117.01)">Created by Olena Panasovska</text><text class="cls-2" transform="translate(3 117.02)">from the Noun Project</text><text class="cls-3" transform="translate(46.88 74.27) rotate(-19.24)">WANT</text></svg>